<?xml version="1.0" encoding="utf-8"?>
<!DOCTYPE svg PUBLIC "-//W3C//DTD SVG 1.1//EN" "http://www.w3.org/Graphics/SVG/1.1/DTD/svg11.dtd">
<svg version="1.1" id="Layer_1" xmlns="http://www.w3.org/2000/svg" xmlns:xlink="http://www.w3.org/1999/xlink" x="0px" y="0px"
width="1452px" height="1452px" viewBox="0 0 1452 1452" enable-background="new 0 0 1452 1452" xml:space="preserve">
<rect x="0" y="0" width="1452" height="1452" fill="rgb(255,253,245)" /><g transform="translate(88,88)"><g transform="translate(352,0) scale(0.088,0.088)"><g transform="" style="fill: rgb(60, 58, 3);">
<path d="M250,38.5c116.813,0,211.5,94.693,211.5,211.5c0,116.813-94.687,211.5-211.5,211.5c-116.807,0-211.5-94.687-211.5-211.5
	C38.5,133.193,133.193,38.5,250,38.5z"/>
</g></g><g transform="translate(440,0) scale(0.088,0.088)"><g transform="" style="fill: rgb(60, 58, 3);">
<path d="M250,38.5c116.813,0,211.5,94.693,211.5,211.5c0,116.813-94.687,211.5-211.5,211.5c-116.807,0-211.5-94.687-211.5-211.5
	C38.5,133.193,133.193,38.5,250,38.5z"/>
</g></g><g transform="translate(572,0) scale(0.088,0.088)"><g transform="" style="fill: rgb(60, 58, 3);">
<path  d="M470,38.5h-47c0,0-29.157,0-66.5,0c-5.711,0-11.611,0-17.63,0c-47.461,0-102.168,0-127.37,0
	C94.65,38.5,0,133.222,0,250c0,116.765,94.65,211.5,211.5,211.5c31.48,0,83.041,0,127.37,0c6.035,0,11.932,0,17.63,0
	c37.686,0,66.5,0,66.5,0h47h30v-423H470z"/>
</g></g><g transform="translate(616,0) scale(0.088,0.088)"><g transform="" style="fill: rgb(60, 58, 3);">
<polygon points="250,38.5 0,38.5 0,461.5 250,461.5 500,461.5 500,38.5 "/>
</g></g><g transform="translate(660,0) scale(0.088,0.088)"><g transform="" style="fill: rgb(60, 58, 3);">
<path d="M288.5,38.5c-42.907,0-123.188,0-171.55,0c-23.857,0-39.95,0-39.95,0H59.5H30H0v423h30h29.5H77c0,0,16.216,0,39.95,0
	c51.332,0,137.84,0,171.55,0C405.301,461.5,500,366.8,500,250C500,133.191,405.301,38.5,288.5,38.5z"/>
</g></g><g transform="translate(748,0) scale(0.088,0.088)"><g transform="" style="fill: rgb(60, 58, 3);">
<path  d="M470,38.5h-47c0,0-29.157,0-66.5,0c-5.711,0-11.611,0-17.63,0c-47.461,0-102.168,0-127.37,0
	C94.65,38.5,0,133.222,0,250c0,116.765,94.65,211.5,211.5,211.5c31.48,0,83.041,0,127.37,0c6.035,0,11.932,0,17.63,0
	c37.686,0,66.5,0,66.5,0h47h30v-423H470z"/>
</g></g><g transform="translate(792,0) scale(0.088,0.088)"><g transform="" style="fill: rgb(60, 58, 3);">
<path d="M288.5,38.5c-42.907,0-123.188,0-171.55,0c-23.857,0-39.95,0-39.95,0H59.5H30H0v423h30h29.5H77c0,0,16.216,0,39.95,0
	c51.332,0,137.84,0,171.55,0C405.301,461.5,500,366.8,500,250C500,133.191,405.301,38.5,288.5,38.5z"/>
</g></g><g transform="translate(440,44) scale(0.088,0.088)"><g transform="" style="fill: rgb(60, 58, 3);">
<path  d="M470,38.5h-47c0,0-29.157,0-66.5,0c-5.711,0-11.611,0-17.63,0c-47.461,0-102.168,0-127.37,0
	C94.65,38.5,0,133.222,0,250c0,116.765,94.65,211.5,211.5,211.5c31.48,0,83.041,0,127.37,0c6.035,0,11.932,0,17.63,0
	c37.686,0,66.5,0,66.5,0h47h30v-423H470z"/>
</g></g><g transform="translate(484,44) scale(0.088,0.088)"><g transform="" style="fill: rgb(60, 58, 3);">
<polygon points="250,38.5 0,38.5 0,461.5 250,461.5 500,461.5 500,38.5 "/>
</g></g><g transform="translate(528,44) scale(0.088,0.088)"><g transform="" style="fill: rgb(60, 58, 3);">
<path d="M288.5,38.5c-42.907,0-123.188,0-171.55,0c-23.857,0-39.95,0-39.95,0H59.5H30H0v423h30h29.5H77c0,0,16.216,0,39.95,0
	c51.332,0,137.84,0,171.55,0C405.301,461.5,500,366.8,500,250C500,133.191,405.301,38.5,288.5,38.5z"/>
</g></g><g transform="translate(660,44) scale(0.088,0.088)"><g transform="" style="fill: rgb(60, 58, 3);">
<path d="M250,38.5c116.813,0,211.5,94.693,211.5,211.5c0,116.813-94.687,211.5-211.5,211.5c-116.807,0-211.5-94.687-211.5-211.5
	C38.5,133.193,133.193,38.5,250,38.5z"/>
</g></g><g transform="translate(748,44) scale(0.088,0.088)"><g transform="" style="fill: rgb(60, 58, 3);">
<path d="M250,38.5c116.813,0,211.5,94.693,211.5,211.5c0,116.813-94.687,211.5-211.5,211.5c-116.807,0-211.5-94.687-211.5-211.5
	C38.5,133.193,133.193,38.5,250,38.5z"/>
</g></g><g transform="translate(880,44) scale(0.088,0.088)"><g transform="" style="fill: rgb(60, 58, 3);">
<path d="M250,38.5c116.813,0,211.5,94.693,211.5,211.5c0,116.813-94.687,211.5-211.5,211.5c-116.807,0-211.5-94.687-211.5-211.5
	C38.5,133.193,133.193,38.5,250,38.5z"/>
</g></g><g transform="translate(352,88) scale(0.088,0.088)"><g transform="" style="fill: rgb(60, 58, 3);">
<path  d="M470,38.5h-47c0,0-29.157,0-66.5,0c-5.711,0-11.611,0-17.63,0c-47.461,0-102.168,0-127.37,0
	C94.65,38.5,0,133.222,0,250c0,116.765,94.65,211.5,211.5,211.5c31.48,0,83.041,0,127.37,0c6.035,0,11.932,0,17.63,0
	c37.686,0,66.5,0,66.5,0h47h30v-423H470z"/>
</g></g><g transform="translate(396,88) scale(0.088,0.088)"><g transform="" style="fill: rgb(60, 58, 3);">
<polygon points="250,38.5 0,38.5 0,461.5 250,461.5 500,461.5 500,38.5 "/>
</g></g><g transform="translate(440,88) scale(0.088,0.088)"><g transform="" style="fill: rgb(60, 58, 3);">
<path d="M288.5,38.5c-42.907,0-123.188,0-171.55,0c-23.857,0-39.95,0-39.95,0H59.5H30H0v423h30h29.5H77c0,0,16.216,0,39.95,0
	c51.332,0,137.84,0,171.55,0C405.301,461.5,500,366.8,500,250C500,133.191,405.301,38.5,288.5,38.5z"/>
</g></g><g transform="translate(572,88) scale(0.088,0.088)"><g transform="" style="fill: rgb(60, 58, 3);">
<path d="M250,38.5c116.813,0,211.5,94.693,211.5,211.5c0,116.813-94.687,211.5-211.5,211.5c-116.807,0-211.5-94.687-211.5-211.5
	C38.5,133.193,133.193,38.5,250,38.5z"/>
</g></g><g transform="translate(748,88) scale(0.088,0.088)"><g transform="" style="fill: rgb(60, 58, 3);">
<path  d="M470,38.5h-47c0,0-29.157,0-66.5,0c-5.711,0-11.611,0-17.63,0c-47.461,0-102.168,0-127.37,0
	C94.65,38.5,0,133.222,0,250c0,116.765,94.65,211.5,211.5,211.5c31.48,0,83.041,0,127.37,0c6.035,0,11.932,0,17.63,0
	c37.686,0,66.5,0,66.5,0h47h30v-423H470z"/>
</g></g><g transform="translate(792,88) scale(0.088,0.088)"><g transform="" style="fill: rgb(60, 58, 3);">
<polygon points="250,38.5 0,38.5 0,461.5 250,461.5 500,461.5 500,38.5 "/>
</g></g><g transform="translate(836,88) scale(0.088,0.088)"><g transform="" style="fill: rgb(60, 58, 3);">
<polygon points="250,38.5 0,38.5 0,461.5 250,461.5 500,461.5 500,38.5 "/>
</g></g><g transform="translate(880,88) scale(0.088,0.088)"><g transform="" style="fill: rgb(60, 58, 3);">
<path d="M288.5,38.5c-42.907,0-123.188,0-171.55,0c-23.857,0-39.95,0-39.95,0H59.5H30H0v423h30h29.5H77c0,0,16.216,0,39.95,0
	c51.332,0,137.84,0,171.55,0C405.301,461.5,500,366.8,500,250C500,133.191,405.301,38.5,288.5,38.5z"/>
</g></g><g transform="translate(396,132) scale(0.088,0.088)"><g transform="" style="fill: rgb(60, 58, 3);">
<path d="M250,38.5c116.813,0,211.5,94.693,211.5,211.5c0,116.813-94.687,211.5-211.5,211.5c-116.807,0-211.5-94.687-211.5-211.5
	C38.5,133.193,133.193,38.5,250,38.5z"/>
</g></g><g transform="translate(528,132) scale(0.088,0.088)"><g transform="" style="fill: rgb(60, 58, 3);">
<path d="M250,38.5c116.813,0,211.5,94.693,211.5,211.5c0,116.813-94.687,211.5-211.5,211.5c-116.807,0-211.5-94.687-211.5-211.5
	C38.5,133.193,133.193,38.5,250,38.5z"/>
</g></g><g transform="translate(660,132) scale(0.088,0.088)"><g transform="" style="fill: rgb(60, 58, 3);">
<path  d="M470,38.5h-47c0,0-29.157,0-66.5,0c-5.711,0-11.611,0-17.63,0c-47.461,0-102.168,0-127.37,0
	C94.65,38.5,0,133.222,0,250c0,116.765,94.65,211.5,211.5,211.5c31.48,0,83.041,0,127.37,0c6.035,0,11.932,0,17.63,0
	c37.686,0,66.5,0,66.5,0h47h30v-423H470z"/>
</g></g><g transform="translate(704,132) scale(0.088,0.088)"><g transform="" style="fill: rgb(60, 58, 3);">
<polygon points="250,38.5 0,38.5 0,461.5 250,461.5 500,461.5 500,38.5 "/>
</g></g><g transform="translate(748,132) scale(0.088,0.088)"><g transform="" style="fill: rgb(60, 58, 3);">
<polygon points="250,38.5 0,38.5 0,461.5 250,461.5 500,461.5 500,38.5 "/>
</g></g><g transform="translate(792,132) scale(0.088,0.088)"><g transform="" style="fill: rgb(60, 58, 3);">
<polygon points="250,38.5 0,38.5 0,461.5 250,461.5 500,461.5 500,38.5 "/>
</g></g><g transform="translate(836,132) scale(0.088,0.088)"><g transform="" style="fill: rgb(60, 58, 3);">
<path d="M288.5,38.5c-42.907,0-123.188,0-171.55,0c-23.857,0-39.95,0-39.95,0H59.5H30H0v423h30h29.5H77c0,0,16.216,0,39.95,0
	c51.332,0,137.84,0,171.55,0C405.301,461.5,500,366.8,500,250C500,133.191,405.301,38.5,288.5,38.5z"/>
</g></g><g transform="translate(528,176) scale(0.088,0.088)"><g transform="" style="fill: rgb(60, 58, 3);">
<path d="M250,38.5c116.813,0,211.5,94.693,211.5,211.5c0,116.813-94.687,211.5-211.5,211.5c-116.807,0-211.5-94.687-211.5-211.5
	C38.5,133.193,133.193,38.5,250,38.5z"/>
</g></g><g transform="translate(660,176) scale(0.088,0.088)"><g transform="" style="fill: rgb(60, 58, 3);">
<path  d="M470,38.5h-47c0,0-29.157,0-66.5,0c-5.711,0-11.611,0-17.63,0c-47.461,0-102.168,0-127.37,0
	C94.65,38.5,0,133.222,0,250c0,116.765,94.65,211.5,211.5,211.5c31.48,0,83.041,0,127.37,0c6.035,0,11.932,0,17.63,0
	c37.686,0,66.5,0,66.5,0h47h30v-423H470z"/>
</g></g><g transform="translate(704,176) scale(0.088,0.088)"><g transform="" style="fill: rgb(60, 58, 3);">
<polygon points="250,38.5 0,38.5 0,461.5 250,461.5 500,461.5 500,38.5 "/>
</g></g><g transform="translate(748,176) scale(0.088,0.088)"><g transform="" style="fill: rgb(60, 58, 3);">
<path d="M288.5,38.5c-42.907,0-123.188,0-171.55,0c-23.857,0-39.95,0-39.95,0H59.5H30H0v423h30h29.5H77c0,0,16.216,0,39.95,0
	c51.332,0,137.84,0,171.55,0C405.301,461.5,500,366.8,500,250C500,133.191,405.301,38.5,288.5,38.5z"/>
</g></g><g transform="translate(352,220) scale(0.088,0.088)"><g transform="" style="fill: rgb(60, 58, 3);">
<path d="M250,38.5c116.813,0,211.5,94.693,211.5,211.5c0,116.813-94.687,211.5-211.5,211.5c-116.807,0-211.5-94.687-211.5-211.5
	C38.5,133.193,133.193,38.5,250,38.5z"/>
</g></g><g transform="translate(440,220) scale(0.088,0.088)"><g transform="" style="fill: rgb(60, 58, 3);">
<path  d="M470,38.5h-47c0,0-29.157,0-66.5,0c-5.711,0-11.611,0-17.63,0c-47.461,0-102.168,0-127.37,0
	C94.65,38.5,0,133.222,0,250c0,116.765,94.65,211.5,211.5,211.5c31.48,0,83.041,0,127.37,0c6.035,0,11.932,0,17.63,0
	c37.686,0,66.5,0,66.5,0h47h30v-423H470z"/>
</g></g><g transform="translate(484,220) scale(0.088,0.088)"><g transform="" style="fill: rgb(60, 58, 3);">
<polygon points="250,38.5 0,38.5 0,461.5 250,461.5 500,461.5 500,38.5 "/>
</g></g><g transform="translate(528,220) scale(0.088,0.088)"><g transform="" style="fill: rgb(60, 58, 3);">
<polygon points="250,38.5 0,38.5 0,461.5 250,461.5 500,461.5 500,38.5 "/>
</g></g><g transform="translate(572,220) scale(0.088,0.088)"><g transform="" style="fill: rgb(60, 58, 3);">
<polygon points="250,38.5 0,38.5 0,461.5 250,461.5 500,461.5 500,38.5 "/>
</g></g><g transform="translate(616,220) scale(0.088,0.088)"><g transform="" style="fill: rgb(60, 58, 3);">
<path d="M288.5,38.5c-42.907,0-123.188,0-171.55,0c-23.857,0-39.95,0-39.95,0H59.5H30H0v423h30h29.5H77c0,0,16.216,0,39.95,0
	c51.332,0,137.84,0,171.55,0C405.301,461.5,500,366.8,500,250C500,133.191,405.301,38.5,288.5,38.5z"/>
</g></g><g transform="translate(704,220) scale(0.088,0.088)"><g transform="" style="fill: rgb(60, 58, 3);">
<path d="M250,38.5c116.813,0,211.5,94.693,211.5,211.5c0,116.813-94.687,211.5-211.5,211.5c-116.807,0-211.5-94.687-211.5-211.5
	C38.5,133.193,133.193,38.5,250,38.5z"/>
</g></g><g transform="translate(792,220) scale(0.088,0.088)"><g transform="" style="fill: rgb(60, 58, 3);">
<path d="M250,38.5c116.813,0,211.5,94.693,211.5,211.5c0,116.813-94.687,211.5-211.5,211.5c-116.807,0-211.5-94.687-211.5-211.5
	C38.5,133.193,133.193,38.5,250,38.5z"/>
</g></g><g transform="translate(352,264) scale(0.088,0.088)"><g transform="" style="fill: rgb(60, 58, 3);">
<path d="M250,38.5c116.813,0,211.5,94.693,211.5,211.5c0,116.813-94.687,211.5-211.5,211.5c-116.807,0-211.5-94.687-211.5-211.5
	C38.5,133.193,133.193,38.5,250,38.5z"/>
</g></g><g transform="translate(440,264) scale(0.088,0.088)"><g transform="" style="fill: rgb(60, 58, 3);">
<path d="M250,38.5c116.813,0,211.5,94.693,211.5,211.5c0,116.813-94.687,211.5-211.5,211.5c-116.807,0-211.5-94.687-211.5-211.5
	C38.5,133.193,133.193,38.5,250,38.5z"/>
</g></g><g transform="translate(528,264) scale(0.088,0.088)"><g transform="" style="fill: rgb(60, 58, 3);">
<path d="M250,38.5c116.813,0,211.5,94.693,211.5,211.5c0,116.813-94.687,211.5-211.5,211.5c-116.807,0-211.5-94.687-211.5-211.5
	C38.5,133.193,133.193,38.5,250,38.5z"/>
</g></g><g transform="translate(616,264) scale(0.088,0.088)"><g transform="" style="fill: rgb(60, 58, 3);">
<path d="M250,38.5c116.813,0,211.5,94.693,211.5,211.5c0,116.813-94.687,211.5-211.5,211.5c-116.807,0-211.5-94.687-211.5-211.5
	C38.5,133.193,133.193,38.5,250,38.5z"/>
</g></g><g transform="translate(704,264) scale(0.088,0.088)"><g transform="" style="fill: rgb(60, 58, 3);">
<path d="M250,38.5c116.813,0,211.5,94.693,211.5,211.5c0,116.813-94.687,211.5-211.5,211.5c-116.807,0-211.5-94.687-211.5-211.5
	C38.5,133.193,133.193,38.5,250,38.5z"/>
</g></g><g transform="translate(792,264) scale(0.088,0.088)"><g transform="" style="fill: rgb(60, 58, 3);">
<path d="M250,38.5c116.813,0,211.5,94.693,211.5,211.5c0,116.813-94.687,211.5-211.5,211.5c-116.807,0-211.5-94.687-211.5-211.5
	C38.5,133.193,133.193,38.5,250,38.5z"/>
</g></g><g transform="translate(880,264) scale(0.088,0.088)"><g transform="" style="fill: rgb(60, 58, 3);">
<path d="M250,38.5c116.813,0,211.5,94.693,211.5,211.5c0,116.813-94.687,211.5-211.5,211.5c-116.807,0-211.5-94.687-211.5-211.5
	C38.5,133.193,133.193,38.5,250,38.5z"/>
</g></g><g transform="translate(396,308) scale(0.088,0.088)"><g transform="" style="fill: rgb(60, 58, 3);">
<path  d="M470,38.5h-47c0,0-29.157,0-66.5,0c-5.711,0-11.611,0-17.63,0c-47.461,0-102.168,0-127.37,0
	C94.65,38.5,0,133.222,0,250c0,116.765,94.65,211.5,211.5,211.5c31.48,0,83.041,0,127.37,0c6.035,0,11.932,0,17.63,0
	c37.686,0,66.5,0,66.5,0h47h30v-423H470z"/>
</g></g><g transform="translate(440,308) scale(0.088,0.088)"><g transform="" style="fill: rgb(60, 58, 3);">
<path d="M288.5,38.5c-42.907,0-123.188,0-171.55,0c-23.857,0-39.95,0-39.95,0H59.5H30H0v423h30h29.5H77c0,0,16.216,0,39.95,0
	c51.332,0,137.84,0,171.55,0C405.301,461.5,500,366.8,500,250C500,133.191,405.301,38.5,288.5,38.5z"/>
</g></g><g transform="translate(528,308) scale(0.088,0.088)"><g transform="" style="fill: rgb(60, 58, 3);">
<path  d="M470,38.5h-47c0,0-29.157,0-66.5,0c-5.711,0-11.611,0-17.63,0c-47.461,0-102.168,0-127.37,0
	C94.65,38.5,0,133.222,0,250c0,116.765,94.65,211.5,211.5,211.5c31.48,0,83.041,0,127.37,0c6.035,0,11.932,0,17.63,0
	c37.686,0,66.5,0,66.5,0h47h30v-423H470z"/>
</g></g><g transform="translate(572,308) scale(0.088,0.088)"><g transform="" style="fill: rgb(60, 58, 3);">
<path d="M288.5,38.5c-42.907,0-123.188,0-171.55,0c-23.857,0-39.95,0-39.95,0H59.5H30H0v423h30h29.5H77c0,0,16.216,0,39.95,0
	c51.332,0,137.84,0,171.55,0C405.301,461.5,500,366.8,500,250C500,133.191,405.301,38.5,288.5,38.5z"/>
</g></g><g transform="translate(792,308) scale(0.088,0.088)"><g transform="" style="fill: rgb(60, 58, 3);">
<path d="M250,38.5c116.813,0,211.5,94.693,211.5,211.5c0,116.813-94.687,211.5-211.5,211.5c-116.807,0-211.5-94.687-211.5-211.5
	C38.5,133.193,133.193,38.5,250,38.5z"/>
</g></g><g transform="translate(0,352) scale(0.088,0.088)"><g transform="" style="fill: rgb(60, 58, 3);">
<path d="M250,38.5c116.813,0,211.5,94.693,211.5,211.5c0,116.813-94.687,211.5-211.5,211.5c-116.807,0-211.5-94.687-211.5-211.5
	C38.5,133.193,133.193,38.5,250,38.5z"/>
</g></g><g transform="translate(88,352) scale(0.088,0.088)"><g transform="" style="fill: rgb(60, 58, 3);">
<path d="M250,38.5c116.813,0,211.5,94.693,211.5,211.5c0,116.813-94.687,211.5-211.5,211.5c-116.807,0-211.5-94.687-211.5-211.5
	C38.5,133.193,133.193,38.5,250,38.5z"/>
</g></g><g transform="translate(264,352) scale(0.088,0.088)"><g transform="" style="fill: rgb(60, 58, 3);">
<path  d="M470,38.5h-47c0,0-29.157,0-66.5,0c-5.711,0-11.611,0-17.63,0c-47.461,0-102.168,0-127.37,0
	C94.65,38.5,0,133.222,0,250c0,116.765,94.65,211.5,211.5,211.5c31.48,0,83.041,0,127.37,0c6.035,0,11.932,0,17.63,0
	c37.686,0,66.5,0,66.5,0h47h30v-423H470z"/>
</g></g><g transform="translate(308,352) scale(0.088,0.088)"><g transform="" style="fill: rgb(60, 58, 3);">
<path d="M288.5,38.5c-42.907,0-123.188,0-171.55,0c-23.857,0-39.95,0-39.95,0H59.5H30H0v423h30h29.5H77c0,0,16.216,0,39.95,0
	c51.332,0,137.84,0,171.55,0C405.301,461.5,500,366.8,500,250C500,133.191,405.301,38.5,288.5,38.5z"/>
</g></g><g transform="translate(440,352) scale(0.088,0.088)"><g transform="" style="fill: rgb(60, 58, 3);">
<path  d="M470,38.5h-47c0,0-29.157,0-66.5,0c-5.711,0-11.611,0-17.63,0c-47.461,0-102.168,0-127.37,0
	C94.65,38.5,0,133.222,0,250c0,116.765,94.65,211.5,211.5,211.5c31.48,0,83.041,0,127.37,0c6.035,0,11.932,0,17.63,0
	c37.686,0,66.5,0,66.5,0h47h30v-423H470z"/>
</g></g><g transform="translate(484,352) scale(0.088,0.088)"><g transform="" style="fill: rgb(60, 58, 3);">
<path d="M288.5,38.5c-42.907,0-123.188,0-171.55,0c-23.857,0-39.95,0-39.95,0H59.5H30H0v423h30h29.5H77c0,0,16.216,0,39.95,0
	c51.332,0,137.84,0,171.55,0C405.301,461.5,500,366.8,500,250C500,133.191,405.301,38.5,288.5,38.5z"/>
</g></g><g transform="translate(572,352) scale(0.088,0.088)"><g transform="" style="fill: rgb(60, 58, 3);">
<path d="M250,38.5c116.813,0,211.5,94.693,211.5,211.5c0,116.813-94.687,211.5-211.5,211.5c-116.807,0-211.5-94.687-211.5-211.5
	C38.5,133.193,133.193,38.5,250,38.5z"/>
</g></g><g transform="translate(660,352) scale(0.088,0.088)"><g transform="" style="fill: rgb(60, 58, 3);">
<path  d="M470,38.5h-47c0,0-29.157,0-66.5,0c-5.711,0-11.611,0-17.63,0c-47.461,0-102.168,0-127.37,0
	C94.65,38.5,0,133.222,0,250c0,116.765,94.65,211.5,211.5,211.5c31.48,0,83.041,0,127.37,0c6.035,0,11.932,0,17.63,0
	c37.686,0,66.5,0,66.5,0h47h30v-423H470z"/>
</g></g><g transform="translate(704,352) scale(0.088,0.088)"><g transform="" style="fill: rgb(60, 58, 3);">
<path d="M288.5,38.5c-42.907,0-123.188,0-171.55,0c-23.857,0-39.95,0-39.95,0H59.5H30H0v423h30h29.5H77c0,0,16.216,0,39.95,0
	c51.332,0,137.84,0,171.55,0C405.301,461.5,500,366.8,500,250C500,133.191,405.301,38.5,288.5,38.5z"/>
</g></g><g transform="translate(792,352) scale(0.088,0.088)"><g transform="" style="fill: rgb(60, 58, 3);">
<path d="M250,38.5c116.813,0,211.5,94.693,211.5,211.5c0,116.813-94.687,211.5-211.5,211.5c-116.807,0-211.5-94.687-211.5-211.5
	C38.5,133.193,133.193,38.5,250,38.5z"/>
</g></g><g transform="translate(880,352) scale(0.088,0.088)"><g transform="" style="fill: rgb(60, 58, 3);">
<path d="M250,38.5c116.813,0,211.5,94.693,211.5,211.5c0,116.813-94.687,211.5-211.5,211.5c-116.807,0-211.5-94.687-211.5-211.5
	C38.5,133.193,133.193,38.5,250,38.5z"/>
</g></g><g transform="translate(1012,352) scale(0.088,0.088)"><g transform="" style="fill: rgb(60, 58, 3);">
<path d="M250,38.5c116.813,0,211.5,94.693,211.5,211.5c0,116.813-94.687,211.5-211.5,211.5c-116.807,0-211.5-94.687-211.5-211.5
	C38.5,133.193,133.193,38.5,250,38.5z"/>
</g></g><g transform="translate(1144,352) scale(0.088,0.088)"><g transform="" style="fill: rgb(60, 58, 3);">
<path d="M250,38.5c116.813,0,211.5,94.693,211.5,211.5c0,116.813-94.687,211.5-211.5,211.5c-116.807,0-211.5-94.687-211.5-211.5
	C38.5,133.193,133.193,38.5,250,38.5z"/>
</g></g><g transform="translate(1232,352) scale(0.088,0.088)"><g transform="" style="fill: rgb(60, 58, 3);">
<path d="M250,38.5c116.813,0,211.5,94.693,211.5,211.5c0,116.813-94.687,211.5-211.5,211.5c-116.807,0-211.5-94.687-211.5-211.5
	C38.5,133.193,133.193,38.5,250,38.5z"/>
</g></g><g transform="translate(132,396) scale(0.088,0.088)"><g transform="" style="fill: rgb(60, 58, 3);">
<path d="M250,38.5c116.813,0,211.5,94.693,211.5,211.5c0,116.813-94.687,211.5-211.5,211.5c-116.807,0-211.5-94.687-211.5-211.5
	C38.5,133.193,133.193,38.5,250,38.5z"/>
</g></g><g transform="translate(308,396) scale(0.088,0.088)"><g transform="" style="fill: rgb(60, 58, 3);">
<path  d="M470,38.5h-47c0,0-29.157,0-66.5,0c-5.711,0-11.611,0-17.63,0c-47.461,0-102.168,0-127.37,0
	C94.65,38.5,0,133.222,0,250c0,116.765,94.65,211.5,211.5,211.5c31.48,0,83.041,0,127.37,0c6.035,0,11.932,0,17.63,0
	c37.686,0,66.5,0,66.5,0h47h30v-423H470z"/>
</g></g><g transform="translate(352,396) scale(0.088,0.088)"><g transform="" style="fill: rgb(60, 58, 3);">
<polygon points="250,38.5 0,38.5 0,461.5 250,461.5 500,461.5 500,38.5 "/>
</g></g><g transform="translate(396,396) scale(0.088,0.088)"><g transform="" style="fill: rgb(60, 58, 3);">
<path d="M288.5,38.5c-42.907,0-123.188,0-171.55,0c-23.857,0-39.95,0-39.95,0H59.5H30H0v423h30h29.5H77c0,0,16.216,0,39.95,0
	c51.332,0,137.84,0,171.55,0C405.301,461.5,500,366.8,500,250C500,133.191,405.301,38.5,288.5,38.5z"/>
</g></g><g transform="translate(528,396) scale(0.088,0.088)"><g transform="" style="fill: rgb(60, 58, 3);">
<path d="M250,38.5c116.813,0,211.5,94.693,211.5,211.5c0,116.813-94.687,211.5-211.5,211.5c-116.807,0-211.5-94.687-211.5-211.5
	C38.5,133.193,133.193,38.5,250,38.5z"/>
</g></g><g transform="translate(704,396) scale(0.088,0.088)"><g transform="" style="fill: rgb(60, 58, 3);">
<path  d="M470,38.5h-47c0,0-29.157,0-66.5,0c-5.711,0-11.611,0-17.63,0c-47.461,0-102.168,0-127.37,0
	C94.65,38.5,0,133.222,0,250c0,116.765,94.65,211.5,211.5,211.5c31.48,0,83.041,0,127.37,0c6.035,0,11.932,0,17.63,0
	c37.686,0,66.5,0,66.5,0h47h30v-423H470z"/>
</g></g><g transform="translate(748,396) scale(0.088,0.088)"><g transform="" style="fill: rgb(60, 58, 3);">
<path d="M288.5,38.5c-42.907,0-123.188,0-171.55,0c-23.857,0-39.95,0-39.95,0H59.5H30H0v423h30h29.5H77c0,0,16.216,0,39.95,0
	c51.332,0,137.84,0,171.55,0C405.301,461.5,500,366.8,500,250C500,133.191,405.301,38.5,288.5,38.5z"/>
</g></g><g transform="translate(836,396) scale(0.088,0.088)"><g transform="" style="fill: rgb(60, 58, 3);">
<path  d="M470,38.5h-47c0,0-29.157,0-66.5,0c-5.711,0-11.611,0-17.63,0c-47.461,0-102.168,0-127.37,0
	C94.65,38.5,0,133.222,0,250c0,116.765,94.65,211.5,211.5,211.5c31.48,0,83.041,0,127.37,0c6.035,0,11.932,0,17.63,0
	c37.686,0,66.5,0,66.5,0h47h30v-423H470z"/>
</g></g><g transform="translate(880,396) scale(0.088,0.088)"><g transform="" style="fill: rgb(60, 58, 3);">
<path d="M288.5,38.5c-42.907,0-123.188,0-171.55,0c-23.857,0-39.95,0-39.95,0H59.5H30H0v423h30h29.5H77c0,0,16.216,0,39.95,0
	c51.332,0,137.84,0,171.55,0C405.301,461.5,500,366.8,500,250C500,133.191,405.301,38.5,288.5,38.5z"/>
</g></g><g transform="translate(968,396) scale(0.088,0.088)"><g transform="" style="fill: rgb(60, 58, 3);">
<path d="M250,38.5c116.813,0,211.5,94.693,211.5,211.5c0,116.813-94.687,211.5-211.5,211.5c-116.807,0-211.5-94.687-211.5-211.5
	C38.5,133.193,133.193,38.5,250,38.5z"/>
</g></g><g transform="translate(1188,396) scale(0.088,0.088)"><g transform="" style="fill: rgb(60, 58, 3);">
<path  d="M470,38.5h-47c0,0-29.157,0-66.5,0c-5.711,0-11.611,0-17.63,0c-47.461,0-102.168,0-127.37,0
	C94.65,38.5,0,133.222,0,250c0,116.765,94.65,211.5,211.5,211.5c31.48,0,83.041,0,127.37,0c6.035,0,11.932,0,17.63,0
	c37.686,0,66.5,0,66.5,0h47h30v-423H470z"/>
</g></g><g transform="translate(1232,396) scale(0.088,0.088)"><g transform="" style="fill: rgb(60, 58, 3);">
<path d="M288.5,38.5c-42.907,0-123.188,0-171.55,0c-23.857,0-39.95,0-39.95,0H59.5H30H0v423h30h29.5H77c0,0,16.216,0,39.95,0
	c51.332,0,137.84,0,171.55,0C405.301,461.5,500,366.8,500,250C500,133.191,405.301,38.5,288.5,38.5z"/>
</g></g><g transform="translate(176,440) scale(0.088,0.088)"><g transform="" style="fill: rgb(60, 58, 3);">
<path  d="M470,38.5h-47c0,0-29.157,0-66.5,0c-5.711,0-11.611,0-17.63,0c-47.461,0-102.168,0-127.37,0
	C94.65,38.5,0,133.222,0,250c0,116.765,94.65,211.5,211.5,211.5c31.48,0,83.041,0,127.37,0c6.035,0,11.932,0,17.63,0
	c37.686,0,66.5,0,66.5,0h47h30v-423H470z"/>
</g></g><g transform="translate(220,440) scale(0.088,0.088)"><g transform="" style="fill: rgb(60, 58, 3);">
<polygon points="250,38.5 0,38.5 0,461.5 250,461.5 500,461.5 500,38.5 "/>
</g></g><g transform="translate(264,440) scale(0.088,0.088)"><g transform="" style="fill: rgb(60, 58, 3);">
<polygon points="250,38.5 0,38.5 0,461.5 250,461.5 500,461.5 500,38.5 "/>
</g></g><g transform="translate(308,440) scale(0.088,0.088)"><g transform="" style="fill: rgb(60, 58, 3);">
<polygon points="250,38.5 0,38.5 0,461.5 250,461.5 500,461.5 500,38.5 "/>
</g></g><g transform="translate(352,440) scale(0.088,0.088)"><g transform="" style="fill: rgb(60, 58, 3);">
<polygon points="250,38.5 0,38.5 0,461.5 250,461.5 500,461.5 500,38.5 "/>
</g></g><g transform="translate(396,440) scale(0.088,0.088)"><g transform="" style="fill: rgb(60, 58, 3);">
<path d="M288.5,38.5c-42.907,0-123.188,0-171.55,0c-23.857,0-39.95,0-39.95,0H59.5H30H0v423h30h29.5H77c0,0,16.216,0,39.95,0
	c51.332,0,137.84,0,171.55,0C405.301,461.5,500,366.8,500,250C500,133.191,405.301,38.5,288.5,38.5z"/>
</g></g><g transform="translate(528,440) scale(0.088,0.088)"><g transform="" style="fill: rgb(60, 58, 3);">
<path  d="M470,38.5h-47c0,0-29.157,0-66.5,0c-5.711,0-11.611,0-17.63,0c-47.461,0-102.168,0-127.37,0
	C94.65,38.5,0,133.222,0,250c0,116.765,94.65,211.5,211.5,211.5c31.48,0,83.041,0,127.37,0c6.035,0,11.932,0,17.63,0
	c37.686,0,66.5,0,66.5,0h47h30v-423H470z"/>
</g></g><g transform="translate(572,440) scale(0.088,0.088)"><g transform="" style="fill: rgb(60, 58, 3);">
<polygon points="250,38.5 0,38.5 0,461.5 250,461.5 500,461.5 500,38.5 "/>
</g></g><g transform="translate(616,440) scale(0.088,0.088)"><g transform="" style="fill: rgb(60, 58, 3);">
<path d="M288.5,38.5c-42.907,0-123.188,0-171.55,0c-23.857,0-39.95,0-39.95,0H59.5H30H0v423h30h29.5H77c0,0,16.216,0,39.95,0
	c51.332,0,137.84,0,171.55,0C405.301,461.5,500,366.8,500,250C500,133.191,405.301,38.5,288.5,38.5z"/>
</g></g><g transform="translate(704,440) scale(0.088,0.088)"><g transform="" style="fill: rgb(60, 58, 3);">
<path d="M250,38.5c116.813,0,211.5,94.693,211.5,211.5c0,116.813-94.687,211.5-211.5,211.5c-116.807,0-211.5-94.687-211.5-211.5
	C38.5,133.193,133.193,38.5,250,38.5z"/>
</g></g><g transform="translate(836,440) scale(0.088,0.088)"><g transform="" style="fill: rgb(60, 58, 3);">
<path d="M250,38.5c116.813,0,211.5,94.693,211.5,211.5c0,116.813-94.687,211.5-211.5,211.5c-116.807,0-211.5-94.687-211.5-211.5
	C38.5,133.193,133.193,38.5,250,38.5z"/>
</g></g><g transform="translate(1012,440) scale(0.088,0.088)"><g transform="" style="fill: rgb(60, 58, 3);">
<path  d="M470,38.5h-47c0,0-29.157,0-66.5,0c-5.711,0-11.611,0-17.63,0c-47.461,0-102.168,0-127.37,0
	C94.65,38.5,0,133.222,0,250c0,116.765,94.65,211.5,211.5,211.5c31.48,0,83.041,0,127.37,0c6.035,0,11.932,0,17.63,0
	c37.686,0,66.5,0,66.5,0h47h30v-423H470z"/>
</g></g><g transform="translate(1056,440) scale(0.088,0.088)"><g transform="" style="fill: rgb(60, 58, 3);">
<polygon points="250,38.5 0,38.5 0,461.5 250,461.5 500,461.5 500,38.5 "/>
</g></g><g transform="translate(1100,440) scale(0.088,0.088)"><g transform="" style="fill: rgb(60, 58, 3);">
<polygon points="250,38.5 0,38.5 0,461.5 250,461.5 500,461.5 500,38.5 "/>
</g></g><g transform="translate(1144,440) scale(0.088,0.088)"><g transform="" style="fill: rgb(60, 58, 3);">
<path d="M288.5,38.5c-42.907,0-123.188,0-171.55,0c-23.857,0-39.95,0-39.95,0H59.5H30H0v423h30h29.5H77c0,0,16.216,0,39.95,0
	c51.332,0,137.84,0,171.55,0C405.301,461.5,500,366.8,500,250C500,133.191,405.301,38.5,288.5,38.5z"/>
</g></g><g transform="translate(1232,440) scale(0.088,0.088)"><g transform="" style="fill: rgb(60, 58, 3);">
<path d="M250,38.5c116.813,0,211.5,94.693,211.5,211.5c0,116.813-94.687,211.5-211.5,211.5c-116.807,0-211.5-94.687-211.5-211.5
	C38.5,133.193,133.193,38.5,250,38.5z"/>
</g></g><g transform="translate(44,484) scale(0.088,0.088)"><g transform="" style="fill: rgb(60, 58, 3);">
<path  d="M470,38.5h-47c0,0-29.157,0-66.5,0c-5.711,0-11.611,0-17.63,0c-47.461,0-102.168,0-127.37,0
	C94.65,38.5,0,133.222,0,250c0,116.765,94.65,211.5,211.5,211.5c31.48,0,83.041,0,127.37,0c6.035,0,11.932,0,17.63,0
	c37.686,0,66.5,0,66.5,0h47h30v-423H470z"/>
</g></g><g transform="translate(88,484) scale(0.088,0.088)"><g transform="" style="fill: rgb(60, 58, 3);">
<path d="M288.5,38.5c-42.907,0-123.188,0-171.55,0c-23.857,0-39.95,0-39.95,0H59.5H30H0v423h30h29.5H77c0,0,16.216,0,39.95,0
	c51.332,0,137.84,0,171.55,0C405.301,461.5,500,366.8,500,250C500,133.191,405.301,38.5,288.5,38.5z"/>
</g></g><g transform="translate(440,484) scale(0.088,0.088)"><g transform="" style="fill: rgb(60, 58, 3);">
<path d="M250,38.5c116.813,0,211.5,94.693,211.5,211.5c0,116.813-94.687,211.5-211.5,211.5c-116.807,0-211.5-94.687-211.5-211.5
	C38.5,133.193,133.193,38.5,250,38.5z"/>
</g></g><g transform="translate(528,484) scale(0.088,0.088)"><g transform="" style="fill: rgb(60, 58, 3);">
<path d="M250,38.5c116.813,0,211.5,94.693,211.5,211.5c0,116.813-94.687,211.5-211.5,211.5c-116.807,0-211.5-94.687-211.5-211.5
	C38.5,133.193,133.193,38.5,250,38.5z"/>
</g></g><g transform="translate(616,484) scale(0.088,0.088)"><g transform="" style="fill: rgb(60, 58, 3);">
<path  d="M470,38.5h-47c0,0-29.157,0-66.5,0c-5.711,0-11.611,0-17.63,0c-47.461,0-102.168,0-127.37,0
	C94.65,38.5,0,133.222,0,250c0,116.765,94.65,211.5,211.5,211.5c31.48,0,83.041,0,127.37,0c6.035,0,11.932,0,17.63,0
	c37.686,0,66.5,0,66.5,0h47h30v-423H470z"/>
</g></g><g transform="translate(660,484) scale(0.088,0.088)"><g transform="" style="fill: rgb(60, 58, 3);">
<polygon points="250,38.5 0,38.5 0,461.5 250,461.5 500,461.5 500,38.5 "/>
</g></g><g transform="translate(704,484) scale(0.088,0.088)"><g transform="" style="fill: rgb(60, 58, 3);">
<path d="M288.5,38.5c-42.907,0-123.188,0-171.55,0c-23.857,0-39.95,0-39.95,0H59.5H30H0v423h30h29.5H77c0,0,16.216,0,39.95,0
	c51.332,0,137.84,0,171.55,0C405.301,461.5,500,366.8,500,250C500,133.191,405.301,38.5,288.5,38.5z"/>
</g></g><g transform="translate(836,484) scale(0.088,0.088)"><g transform="" style="fill: rgb(60, 58, 3);">
<path d="M250,38.5c116.813,0,211.5,94.693,211.5,211.5c0,116.813-94.687,211.5-211.5,211.5c-116.807,0-211.5-94.687-211.5-211.5
	C38.5,133.193,133.193,38.5,250,38.5z"/>
</g></g><g transform="translate(968,484) scale(0.088,0.088)"><g transform="" style="fill: rgb(60, 58, 3);">
<path  d="M470,38.5h-47c0,0-29.157,0-66.5,0c-5.711,0-11.611,0-17.63,0c-47.461,0-102.168,0-127.37,0
	C94.65,38.5,0,133.222,0,250c0,116.765,94.65,211.5,211.5,211.5c31.48,0,83.041,0,127.37,0c6.035,0,11.932,0,17.63,0
	c37.686,0,66.5,0,66.5,0h47h30v-423H470z"/>
</g></g><g transform="translate(1012,484) scale(0.088,0.088)"><g transform="" style="fill: rgb(60, 58, 3);">
<path d="M288.5,38.5c-42.907,0-123.188,0-171.55,0c-23.857,0-39.95,0-39.95,0H59.5H30H0v423h30h29.5H77c0,0,16.216,0,39.95,0
	c51.332,0,137.84,0,171.55,0C405.301,461.5,500,366.8,500,250C500,133.191,405.301,38.5,288.5,38.5z"/>
</g></g><g transform="translate(1100,484) scale(0.088,0.088)"><g transform="" style="fill: rgb(60, 58, 3);">
<path d="M250,38.5c116.813,0,211.5,94.693,211.5,211.5c0,116.813-94.687,211.5-211.5,211.5c-116.807,0-211.5-94.687-211.5-211.5
	C38.5,133.193,133.193,38.5,250,38.5z"/>
</g></g><g transform="translate(44,528) scale(0.088,0.088)"><g transform="" style="fill: rgb(60, 58, 3);">
<path d="M250,38.5c116.813,0,211.5,94.693,211.5,211.5c0,116.813-94.687,211.5-211.5,211.5c-116.807,0-211.5-94.687-211.5-211.5
	C38.5,133.193,133.193,38.5,250,38.5z"/>
</g></g><g transform="translate(176,528) scale(0.088,0.088)"><g transform="" style="fill: rgb(60, 58, 3);">
<path  d="M470,38.5h-47c0,0-29.157,0-66.5,0c-5.711,0-11.611,0-17.63,0c-47.461,0-102.168,0-127.37,0
	C94.65,38.5,0,133.222,0,250c0,116.765,94.65,211.5,211.5,211.5c31.48,0,83.041,0,127.37,0c6.035,0,11.932,0,17.63,0
	c37.686,0,66.5,0,66.5,0h47h30v-423H470z"/>
</g></g><g transform="translate(220,528) scale(0.088,0.088)"><g transform="" style="fill: rgb(60, 58, 3);">
<polygon points="250,38.5 0,38.5 0,461.5 250,461.5 500,461.5 500,38.5 "/>
</g></g><g transform="translate(264,528) scale(0.088,0.088)"><g transform="" style="fill: rgb(60, 58, 3);">
<polygon points="250,38.5 0,38.5 0,461.5 250,461.5 500,461.5 500,38.5 "/>
</g></g><g transform="translate(308,528) scale(0.088,0.088)"><g transform="" style="fill: rgb(60, 58, 3);">
<path d="M288.5,38.5c-42.907,0-123.188,0-171.55,0c-23.857,0-39.95,0-39.95,0H59.5H30H0v423h30h29.5H77c0,0,16.216,0,39.95,0
	c51.332,0,137.84,0,171.55,0C405.301,461.5,500,366.8,500,250C500,133.191,405.301,38.5,288.5,38.5z"/>
</g></g><g transform="translate(528,528) scale(0.088,0.088)"><g transform="" style="fill: rgb(60, 58, 3);">
<path  d="M470,38.5h-47c0,0-29.157,0-66.5,0c-5.711,0-11.611,0-17.63,0c-47.461,0-102.168,0-127.37,0
	C94.65,38.5,0,133.222,0,250c0,116.765,94.65,211.5,211.5,211.5c31.48,0,83.041,0,127.37,0c6.035,0,11.932,0,17.63,0
	c37.686,0,66.5,0,66.5,0h47h30v-423H470z"/>
</g></g><g transform="translate(572,528) scale(0.088,0.088)"><g transform="" style="fill: rgb(60, 58, 3);">
<polygon points="250,38.5 0,38.5 0,461.5 250,461.5 500,461.5 500,38.5 "/>
</g></g><g transform="translate(616,528) scale(0.088,0.088)"><g transform="" style="fill: rgb(60, 58, 3);">
<path d="M288.5,38.5c-42.907,0-123.188,0-171.55,0c-23.857,0-39.95,0-39.95,0H59.5H30H0v423h30h29.5H77c0,0,16.216,0,39.95,0
	c51.332,0,137.84,0,171.55,0C405.301,461.5,500,366.8,500,250C500,133.191,405.301,38.5,288.5,38.5z"/>
</g></g><g transform="translate(836,528) scale(0.088,0.088)"><g transform="" style="fill: rgb(60, 58, 3);">
<path d="M250,38.5c116.813,0,211.5,94.693,211.5,211.5c0,116.813-94.687,211.5-211.5,211.5c-116.807,0-211.5-94.687-211.5-211.5
	C38.5,133.193,133.193,38.5,250,38.5z"/>
</g></g><g transform="translate(968,528) scale(0.088,0.088)"><g transform="" style="fill: rgb(60, 58, 3);">
<path d="M250,38.5c116.813,0,211.5,94.693,211.5,211.5c0,116.813-94.687,211.5-211.5,211.5c-116.807,0-211.5-94.687-211.5-211.5
	C38.5,133.193,133.193,38.5,250,38.5z"/>
</g></g><g transform="translate(1232,528) scale(0.088,0.088)"><g transform="" style="fill: rgb(60, 58, 3);">
<path d="M250,38.5c116.813,0,211.5,94.693,211.5,211.5c0,116.813-94.687,211.5-211.5,211.5c-116.807,0-211.5-94.687-211.5-211.5
	C38.5,133.193,133.193,38.5,250,38.5z"/>
</g></g><g transform="translate(0,572) scale(0.088,0.088)"><g transform="" style="fill: rgb(60, 58, 3);">
<path d="M250,38.5c116.813,0,211.5,94.693,211.5,211.5c0,116.813-94.687,211.5-211.5,211.5c-116.807,0-211.5-94.687-211.5-211.5
	C38.5,133.193,133.193,38.5,250,38.5z"/>
</g></g><g transform="translate(88,572) scale(0.088,0.088)"><g transform="" style="fill: rgb(60, 58, 3);">
<path  d="M470,38.5h-47c0,0-29.157,0-66.5,0c-5.711,0-11.611,0-17.63,0c-47.461,0-102.168,0-127.37,0
	C94.65,38.5,0,133.222,0,250c0,116.765,94.65,211.5,211.5,211.5c31.48,0,83.041,0,127.37,0c6.035,0,11.932,0,17.63,0
	c37.686,0,66.5,0,66.5,0h47h30v-423H470z"/>
</g></g><g transform="translate(132,572) scale(0.088,0.088)"><g transform="" style="fill: rgb(60, 58, 3);">
<polygon points="250,38.5 0,38.5 0,461.5 250,461.5 500,461.5 500,38.5 "/>
</g></g><g transform="translate(176,572) scale(0.088,0.088)"><g transform="" style="fill: rgb(60, 58, 3);">
<polygon points="250,38.5 0,38.5 0,461.5 250,461.5 500,461.5 500,38.5 "/>
</g></g><g transform="translate(220,572) scale(0.088,0.088)"><g transform="" style="fill: rgb(60, 58, 3);">
<path d="M288.5,38.5c-42.907,0-123.188,0-171.55,0c-23.857,0-39.95,0-39.95,0H59.5H30H0v423h30h29.5H77c0,0,16.216,0,39.95,0
	c51.332,0,137.84,0,171.55,0C405.301,461.5,500,366.8,500,250C500,133.191,405.301,38.5,288.5,38.5z"/>
</g></g><g transform="translate(308,572) scale(0.088,0.088)"><g transform="" style="fill: rgb(60, 58, 3);">
<path  d="M470,38.5h-47c0,0-29.157,0-66.5,0c-5.711,0-11.611,0-17.63,0c-47.461,0-102.168,0-127.37,0
	C94.65,38.5,0,133.222,0,250c0,116.765,94.65,211.5,211.5,211.5c31.48,0,83.041,0,127.37,0c6.035,0,11.932,0,17.63,0
	c37.686,0,66.5,0,66.5,0h47h30v-423H470z"/>
</g></g><g transform="translate(352,572) scale(0.088,0.088)"><g transform="" style="fill: rgb(60, 58, 3);">
<path d="M288.5,38.5c-42.907,0-123.188,0-171.55,0c-23.857,0-39.95,0-39.95,0H59.5H30H0v423h30h29.5H77c0,0,16.216,0,39.95,0
	c51.332,0,137.84,0,171.55,0C405.301,461.5,500,366.8,500,250C500,133.191,405.301,38.5,288.5,38.5z"/>
</g></g><g transform="translate(440,572) scale(0.088,0.088)"><g transform="" style="fill: rgb(60, 58, 3);">
<path  d="M470,38.5h-47c0,0-29.157,0-66.5,0c-5.711,0-11.611,0-17.63,0c-47.461,0-102.168,0-127.37,0
	C94.65,38.5,0,133.222,0,250c0,116.765,94.65,211.5,211.5,211.5c31.48,0,83.041,0,127.37,0c6.035,0,11.932,0,17.63,0
	c37.686,0,66.5,0,66.5,0h47h30v-423H470z"/>
</g></g><g transform="translate(484,572) scale(0.088,0.088)"><g transform="" style="fill: rgb(60, 58, 3);">
<polygon points="250,38.5 0,38.5 0,461.5 250,461.5 500,461.5 500,38.5 "/>
</g></g><g transform="translate(528,572) scale(0.088,0.088)"><g transform="" style="fill: rgb(60, 58, 3);">
<polygon points="250,38.5 0,38.5 0,461.5 250,461.5 500,461.5 500,38.5 "/>
</g></g><g transform="translate(572,572) scale(0.088,0.088)"><g transform="" style="fill: rgb(60, 58, 3);">
<polygon points="250,38.5 0,38.5 0,461.5 250,461.5 500,461.5 500,38.5 "/>
</g></g><g transform="translate(616,572) scale(0.088,0.088)"><g transform="" style="fill: rgb(60, 58, 3);">
<path d="M288.5,38.5c-42.907,0-123.188,0-171.55,0c-23.857,0-39.95,0-39.95,0H59.5H30H0v423h30h29.5H77c0,0,16.216,0,39.95,0
	c51.332,0,137.84,0,171.55,0C405.301,461.5,500,366.8,500,250C500,133.191,405.301,38.5,288.5,38.5z"/>
</g></g><g transform="translate(836,572) scale(0.088,0.088)"><g transform="" style="fill: rgb(60, 58, 3);">
<path  d="M470,38.5h-47c0,0-29.157,0-66.5,0c-5.711,0-11.611,0-17.63,0c-47.461,0-102.168,0-127.37,0
	C94.65,38.5,0,133.222,0,250c0,116.765,94.65,211.5,211.5,211.5c31.48,0,83.041,0,127.37,0c6.035,0,11.932,0,17.63,0
	c37.686,0,66.5,0,66.5,0h47h30v-423H470z"/>
</g></g><g transform="translate(880,572) scale(0.088,0.088)"><g transform="" style="fill: rgb(60, 58, 3);">
<polygon points="250,38.5 0,38.5 0,461.5 250,461.5 500,461.5 500,38.5 "/>
</g></g><g transform="translate(924,572) scale(0.088,0.088)"><g transform="" style="fill: rgb(60, 58, 3);">
<polygon points="250,38.5 0,38.5 0,461.5 250,461.5 500,461.5 500,38.5 "/>
</g></g><g transform="translate(968,572) scale(0.088,0.088)"><g transform="" style="fill: rgb(60, 58, 3);">
<polygon points="250,38.5 0,38.5 0,461.5 250,461.5 500,461.5 500,38.5 "/>
</g></g><g transform="translate(1012,572) scale(0.088,0.088)"><g transform="" style="fill: rgb(60, 58, 3);">
<path d="M288.5,38.5c-42.907,0-123.188,0-171.55,0c-23.857,0-39.95,0-39.95,0H59.5H30H0v423h30h29.5H77c0,0,16.216,0,39.95,0
	c51.332,0,137.84,0,171.55,0C405.301,461.5,500,366.8,500,250C500,133.191,405.301,38.5,288.5,38.5z"/>
</g></g><g transform="translate(1188,572) scale(0.088,0.088)"><g transform="" style="fill: rgb(60, 58, 3);">
<path  d="M470,38.5h-47c0,0-29.157,0-66.5,0c-5.711,0-11.611,0-17.63,0c-47.461,0-102.168,0-127.37,0
	C94.65,38.5,0,133.222,0,250c0,116.765,94.65,211.5,211.5,211.5c31.48,0,83.041,0,127.37,0c6.035,0,11.932,0,17.63,0
	c37.686,0,66.5,0,66.5,0h47h30v-423H470z"/>
</g></g><g transform="translate(1232,572) scale(0.088,0.088)"><g transform="" style="fill: rgb(60, 58, 3);">
<path d="M288.5,38.5c-42.907,0-123.188,0-171.55,0c-23.857,0-39.95,0-39.95,0H59.5H30H0v423h30h29.5H77c0,0,16.216,0,39.95,0
	c51.332,0,137.84,0,171.55,0C405.301,461.5,500,366.8,500,250C500,133.191,405.301,38.5,288.5,38.5z"/>
</g></g><g transform="translate(0,616) scale(0.088,0.088)"><g transform="" style="fill: rgb(60, 58, 3);">
<path  d="M470,38.5h-47c0,0-29.157,0-66.5,0c-5.711,0-11.611,0-17.63,0c-47.461,0-102.168,0-127.37,0
	C94.65,38.5,0,133.222,0,250c0,116.765,94.65,211.5,211.5,211.5c31.48,0,83.041,0,127.37,0c6.035,0,11.932,0,17.63,0
	c37.686,0,66.5,0,66.5,0h47h30v-423H470z"/>
</g></g><g transform="translate(44,616) scale(0.088,0.088)"><g transform="" style="fill: rgb(60, 58, 3);">
<path d="M288.5,38.5c-42.907,0-123.188,0-171.55,0c-23.857,0-39.95,0-39.95,0H59.5H30H0v423h30h29.5H77c0,0,16.216,0,39.95,0
	c51.332,0,137.84,0,171.55,0C405.301,461.5,500,366.8,500,250C500,133.191,405.301,38.5,288.5,38.5z"/>
</g></g><g transform="translate(176,616) scale(0.088,0.088)"><g transform="" style="fill: rgb(60, 58, 3);">
<path d="M250,38.5c116.813,0,211.5,94.693,211.5,211.5c0,116.813-94.687,211.5-211.5,211.5c-116.807,0-211.5-94.687-211.5-211.5
	C38.5,133.193,133.193,38.5,250,38.5z"/>
</g></g><g transform="translate(264,616) scale(0.088,0.088)"><g transform="" style="fill: rgb(60, 58, 3);">
<path d="M250,38.5c116.813,0,211.5,94.693,211.5,211.5c0,116.813-94.687,211.5-211.5,211.5c-116.807,0-211.5-94.687-211.5-211.5
	C38.5,133.193,133.193,38.5,250,38.5z"/>
</g></g><g transform="translate(660,616) scale(0.088,0.088)"><g transform="" style="fill: rgb(60, 58, 3);">
<path d="M250,38.5c116.813,0,211.5,94.693,211.5,211.5c0,116.813-94.687,211.5-211.5,211.5c-116.807,0-211.5-94.687-211.5-211.5
	C38.5,133.193,133.193,38.5,250,38.5z"/>
</g></g><g transform="translate(792,616) scale(0.088,0.088)"><g transform="" style="fill: rgb(60, 58, 3);">
<path  d="M470,38.5h-47c0,0-29.157,0-66.5,0c-5.711,0-11.611,0-17.63,0c-47.461,0-102.168,0-127.37,0
	C94.65,38.5,0,133.222,0,250c0,116.765,94.65,211.5,211.5,211.5c31.48,0,83.041,0,127.37,0c6.035,0,11.932,0,17.63,0
	c37.686,0,66.5,0,66.5,0h47h30v-423H470z"/>
</g></g><g transform="translate(836,616) scale(0.088,0.088)"><g transform="" style="fill: rgb(60, 58, 3);">
<polygon points="250,38.5 0,38.5 0,461.5 250,461.5 500,461.5 500,38.5 "/>
</g></g><g transform="translate(880,616) scale(0.088,0.088)"><g transform="" style="fill: rgb(60, 58, 3);">
<polygon points="250,38.5 0,38.5 0,461.5 250,461.5 500,461.5 500,38.5 "/>
</g></g><g transform="translate(924,616) scale(0.088,0.088)"><g transform="" style="fill: rgb(60, 58, 3);">
<polygon points="250,38.5 0,38.5 0,461.5 250,461.5 500,461.5 500,38.5 "/>
</g></g><g transform="translate(968,616) scale(0.088,0.088)"><g transform="" style="fill: rgb(60, 58, 3);">
<polygon points="250,38.5 0,38.5 0,461.5 250,461.5 500,461.5 500,38.5 "/>
</g></g><g transform="translate(1012,616) scale(0.088,0.088)"><g transform="" style="fill: rgb(60, 58, 3);">
<path d="M288.5,38.5c-42.907,0-123.188,0-171.55,0c-23.857,0-39.95,0-39.95,0H59.5H30H0v423h30h29.5H77c0,0,16.216,0,39.95,0
	c51.332,0,137.84,0,171.55,0C405.301,461.5,500,366.8,500,250C500,133.191,405.301,38.5,288.5,38.5z"/>
</g></g><g transform="translate(1232,616) scale(0.088,0.088)"><g transform="" style="fill: rgb(60, 58, 3);">
<path d="M250,38.5c116.813,0,211.5,94.693,211.5,211.5c0,116.813-94.687,211.5-211.5,211.5c-116.807,0-211.5-94.687-211.5-211.5
	C38.5,133.193,133.193,38.5,250,38.5z"/>
</g></g><g transform="translate(0,660) scale(0.088,0.088)"><g transform="" style="fill: rgb(60, 58, 3);">
<path d="M250,38.5c116.813,0,211.5,94.693,211.5,211.5c0,116.813-94.687,211.5-211.5,211.5c-116.807,0-211.5-94.687-211.5-211.5
	C38.5,133.193,133.193,38.5,250,38.5z"/>
</g></g><g transform="translate(88,660) scale(0.088,0.088)"><g transform="" style="fill: rgb(60, 58, 3);">
<path d="M250,38.5c116.813,0,211.5,94.693,211.5,211.5c0,116.813-94.687,211.5-211.5,211.5c-116.807,0-211.5-94.687-211.5-211.5
	C38.5,133.193,133.193,38.5,250,38.5z"/>
</g></g><g transform="translate(176,660) scale(0.088,0.088)"><g transform="" style="fill: rgb(60, 58, 3);">
<path  d="M470,38.5h-47c0,0-29.157,0-66.5,0c-5.711,0-11.611,0-17.63,0c-47.461,0-102.168,0-127.37,0
	C94.65,38.5,0,133.222,0,250c0,116.765,94.65,211.5,211.5,211.5c31.48,0,83.041,0,127.37,0c6.035,0,11.932,0,17.63,0
	c37.686,0,66.5,0,66.5,0h47h30v-423H470z"/>
</g></g><g transform="translate(220,660) scale(0.088,0.088)"><g transform="" style="fill: rgb(60, 58, 3);">
<path d="M288.5,38.5c-42.907,0-123.188,0-171.55,0c-23.857,0-39.95,0-39.95,0H59.5H30H0v423h30h29.5H77c0,0,16.216,0,39.95,0
	c51.332,0,137.84,0,171.55,0C405.301,461.5,500,366.8,500,250C500,133.191,405.301,38.5,288.5,38.5z"/>
</g></g><g transform="translate(396,660) scale(0.088,0.088)"><g transform="" style="fill: rgb(60, 58, 3);">
<path d="M250,38.5c116.813,0,211.5,94.693,211.5,211.5c0,116.813-94.687,211.5-211.5,211.5c-116.807,0-211.5-94.687-211.5-211.5
	C38.5,133.193,133.193,38.5,250,38.5z"/>
</g></g><g transform="translate(484,660) scale(0.088,0.088)"><g transform="" style="fill: rgb(60, 58, 3);">
<path  d="M470,38.5h-47c0,0-29.157,0-66.5,0c-5.711,0-11.611,0-17.63,0c-47.461,0-102.168,0-127.37,0
	C94.65,38.5,0,133.222,0,250c0,116.765,94.65,211.5,211.5,211.5c31.48,0,83.041,0,127.37,0c6.035,0,11.932,0,17.63,0
	c37.686,0,66.5,0,66.5,0h47h30v-423H470z"/>
</g></g><g transform="translate(528,660) scale(0.088,0.088)"><g transform="" style="fill: rgb(60, 58, 3);">
<polygon points="250,38.5 0,38.5 0,461.5 250,461.5 500,461.5 500,38.5 "/>
</g></g><g transform="translate(572,660) scale(0.088,0.088)"><g transform="" style="fill: rgb(60, 58, 3);">
<path d="M288.5,38.5c-42.907,0-123.188,0-171.55,0c-23.857,0-39.95,0-39.95,0H59.5H30H0v423h30h29.5H77c0,0,16.216,0,39.95,0
	c51.332,0,137.84,0,171.55,0C405.301,461.5,500,366.8,500,250C500,133.191,405.301,38.5,288.5,38.5z"/>
</g></g><g transform="translate(792,660) scale(0.088,0.088)"><g transform="" style="fill: rgb(60, 58, 3);">
<path  d="M470,38.5h-47c0,0-29.157,0-66.5,0c-5.711,0-11.611,0-17.63,0c-47.461,0-102.168,0-127.37,0
	C94.65,38.5,0,133.222,0,250c0,116.765,94.65,211.5,211.5,211.5c31.48,0,83.041,0,127.37,0c6.035,0,11.932,0,17.63,0
	c37.686,0,66.5,0,66.5,0h47h30v-423H470z"/>
</g></g><g transform="translate(836,660) scale(0.088,0.088)"><g transform="" style="fill: rgb(60, 58, 3);">
<polygon points="250,38.5 0,38.5 0,461.5 250,461.5 500,461.5 500,38.5 "/>
</g></g><g transform="translate(880,660) scale(0.088,0.088)"><g transform="" style="fill: rgb(60, 58, 3);">
<path d="M288.5,38.5c-42.907,0-123.188,0-171.55,0c-23.857,0-39.95,0-39.95,0H59.5H30H0v423h30h29.5H77c0,0,16.216,0,39.95,0
	c51.332,0,137.84,0,171.55,0C405.301,461.5,500,366.8,500,250C500,133.191,405.301,38.5,288.5,38.5z"/>
</g></g><g transform="translate(968,660) scale(0.088,0.088)"><g transform="" style="fill: rgb(60, 58, 3);">
<path d="M250,38.5c116.813,0,211.5,94.693,211.5,211.5c0,116.813-94.687,211.5-211.5,211.5c-116.807,0-211.5-94.687-211.5-211.5
	C38.5,133.193,133.193,38.5,250,38.5z"/>
</g></g><g transform="translate(1056,660) scale(0.088,0.088)"><g transform="" style="fill: rgb(60, 58, 3);">
<path d="M250,38.5c116.813,0,211.5,94.693,211.5,211.5c0,116.813-94.687,211.5-211.5,211.5c-116.807,0-211.5-94.687-211.5-211.5
	C38.5,133.193,133.193,38.5,250,38.5z"/>
</g></g><g transform="translate(264,704) scale(0.088,0.088)"><g transform="" style="fill: rgb(60, 58, 3);">
<path d="M250,38.5c116.813,0,211.5,94.693,211.5,211.5c0,116.813-94.687,211.5-211.5,211.5c-116.807,0-211.5-94.687-211.5-211.5
	C38.5,133.193,133.193,38.5,250,38.5z"/>
</g></g><g transform="translate(352,704) scale(0.088,0.088)"><g transform="" style="fill: rgb(60, 58, 3);">
<path d="M250,38.5c116.813,0,211.5,94.693,211.5,211.5c0,116.813-94.687,211.5-211.5,211.5c-116.807,0-211.5-94.687-211.5-211.5
	C38.5,133.193,133.193,38.5,250,38.5z"/>
</g></g><g transform="translate(440,704) scale(0.088,0.088)"><g transform="" style="fill: rgb(60, 58, 3);">
<path d="M250,38.5c116.813,0,211.5,94.693,211.5,211.5c0,116.813-94.687,211.5-211.5,211.5c-116.807,0-211.5-94.687-211.5-211.5
	C38.5,133.193,133.193,38.5,250,38.5z"/>
</g></g><g transform="translate(572,704) scale(0.088,0.088)"><g transform="" style="fill: rgb(60, 58, 3);">
<path d="M250,38.5c116.813,0,211.5,94.693,211.5,211.5c0,116.813-94.687,211.5-211.5,211.5c-116.807,0-211.5-94.687-211.5-211.5
	C38.5,133.193,133.193,38.5,250,38.5z"/>
</g></g><g transform="translate(660,704) scale(0.088,0.088)"><g transform="" style="fill: rgb(60, 58, 3);">
<path  d="M470,38.5h-47c0,0-29.157,0-66.5,0c-5.711,0-11.611,0-17.63,0c-47.461,0-102.168,0-127.37,0
	C94.65,38.5,0,133.222,0,250c0,116.765,94.65,211.5,211.5,211.5c31.48,0,83.041,0,127.37,0c6.035,0,11.932,0,17.63,0
	c37.686,0,66.5,0,66.5,0h47h30v-423H470z"/>
</g></g><g transform="translate(704,704) scale(0.088,0.088)"><g transform="" style="fill: rgb(60, 58, 3);">
<path d="M288.5,38.5c-42.907,0-123.188,0-171.55,0c-23.857,0-39.95,0-39.95,0H59.5H30H0v423h30h29.5H77c0,0,16.216,0,39.95,0
	c51.332,0,137.84,0,171.55,0C405.301,461.5,500,366.8,500,250C500,133.191,405.301,38.5,288.5,38.5z"/>
</g></g><g transform="translate(880,704) scale(0.088,0.088)"><g transform="" style="fill: rgb(60, 58, 3);">
<path d="M250,38.5c116.813,0,211.5,94.693,211.5,211.5c0,116.813-94.687,211.5-211.5,211.5c-116.807,0-211.5-94.687-211.5-211.5
	C38.5,133.193,133.193,38.5,250,38.5z"/>
</g></g><g transform="translate(968,704) scale(0.088,0.088)"><g transform="" style="fill: rgb(60, 58, 3);">
<path d="M250,38.5c116.813,0,211.5,94.693,211.5,211.5c0,116.813-94.687,211.5-211.5,211.5c-116.807,0-211.5-94.687-211.5-211.5
	C38.5,133.193,133.193,38.5,250,38.5z"/>
</g></g><g transform="translate(1232,704) scale(0.088,0.088)"><g transform="" style="fill: rgb(60, 58, 3);">
<path d="M250,38.5c116.813,0,211.5,94.693,211.5,211.5c0,116.813-94.687,211.5-211.5,211.5c-116.807,0-211.5-94.687-211.5-211.5
	C38.5,133.193,133.193,38.5,250,38.5z"/>
</g></g><g transform="translate(44,748) scale(0.088,0.088)"><g transform="" style="fill: rgb(60, 58, 3);">
<path d="M250,38.5c116.813,0,211.5,94.693,211.5,211.5c0,116.813-94.687,211.5-211.5,211.5c-116.807,0-211.5-94.687-211.5-211.5
	C38.5,133.193,133.193,38.5,250,38.5z"/>
</g></g><g transform="translate(352,748) scale(0.088,0.088)"><g transform="" style="fill: rgb(60, 58, 3);">
<path  d="M470,38.5h-47c0,0-29.157,0-66.5,0c-5.711,0-11.611,0-17.63,0c-47.461,0-102.168,0-127.37,0
	C94.65,38.5,0,133.222,0,250c0,116.765,94.65,211.5,211.5,211.5c31.48,0,83.041,0,127.37,0c6.035,0,11.932,0,17.63,0
	c37.686,0,66.5,0,66.5,0h47h30v-423H470z"/>
</g></g><g transform="translate(396,748) scale(0.088,0.088)"><g transform="" style="fill: rgb(60, 58, 3);">
<polygon points="250,38.5 0,38.5 0,461.5 250,461.5 500,461.5 500,38.5 "/>
</g></g><g transform="translate(440,748) scale(0.088,0.088)"><g transform="" style="fill: rgb(60, 58, 3);">
<polygon points="250,38.5 0,38.5 0,461.5 250,461.5 500,461.5 500,38.5 "/>
</g></g><g transform="translate(484,748) scale(0.088,0.088)"><g transform="" style="fill: rgb(60, 58, 3);">
<path d="M288.5,38.5c-42.907,0-123.188,0-171.55,0c-23.857,0-39.95,0-39.95,0H59.5H30H0v423h30h29.5H77c0,0,16.216,0,39.95,0
	c51.332,0,137.84,0,171.55,0C405.301,461.5,500,366.8,500,250C500,133.191,405.301,38.5,288.5,38.5z"/>
</g></g><g transform="translate(704,748) scale(0.088,0.088)"><g transform="" style="fill: rgb(60, 58, 3);">
<path  d="M470,38.5h-47c0,0-29.157,0-66.5,0c-5.711,0-11.611,0-17.63,0c-47.461,0-102.168,0-127.37,0
	C94.65,38.5,0,133.222,0,250c0,116.765,94.65,211.5,211.5,211.5c31.48,0,83.041,0,127.37,0c6.035,0,11.932,0,17.63,0
	c37.686,0,66.5,0,66.5,0h47h30v-423H470z"/>
</g></g><g transform="translate(748,748) scale(0.088,0.088)"><g transform="" style="fill: rgb(60, 58, 3);">
<path d="M288.5,38.5c-42.907,0-123.188,0-171.55,0c-23.857,0-39.95,0-39.95,0H59.5H30H0v423h30h29.5H77c0,0,16.216,0,39.95,0
	c51.332,0,137.84,0,171.55,0C405.301,461.5,500,366.8,500,250C500,133.191,405.301,38.5,288.5,38.5z"/>
</g></g><g transform="translate(836,748) scale(0.088,0.088)"><g transform="" style="fill: rgb(60, 58, 3);">
<path  d="M470,38.5h-47c0,0-29.157,0-66.5,0c-5.711,0-11.611,0-17.63,0c-47.461,0-102.168,0-127.37,0
	C94.65,38.5,0,133.222,0,250c0,116.765,94.65,211.5,211.5,211.5c31.48,0,83.041,0,127.37,0c6.035,0,11.932,0,17.63,0
	c37.686,0,66.5,0,66.5,0h47h30v-423H470z"/>
</g></g><g transform="translate(880,748) scale(0.088,0.088)"><g transform="" style="fill: rgb(60, 58, 3);">
<path d="M288.5,38.5c-42.907,0-123.188,0-171.55,0c-23.857,0-39.95,0-39.95,0H59.5H30H0v423h30h29.5H77c0,0,16.216,0,39.95,0
	c51.332,0,137.84,0,171.55,0C405.301,461.5,500,366.8,500,250C500,133.191,405.301,38.5,288.5,38.5z"/>
</g></g><g transform="translate(968,748) scale(0.088,0.088)"><g transform="" style="fill: rgb(60, 58, 3);">
<path  d="M470,38.5h-47c0,0-29.157,0-66.5,0c-5.711,0-11.611,0-17.63,0c-47.461,0-102.168,0-127.37,0
	C94.65,38.5,0,133.222,0,250c0,116.765,94.65,211.5,211.5,211.5c31.48,0,83.041,0,127.37,0c6.035,0,11.932,0,17.63,0
	c37.686,0,66.5,0,66.5,0h47h30v-423H470z"/>
</g></g><g transform="translate(1012,748) scale(0.088,0.088)"><g transform="" style="fill: rgb(60, 58, 3);">
<path d="M288.5,38.5c-42.907,0-123.188,0-171.55,0c-23.857,0-39.95,0-39.95,0H59.5H30H0v423h30h29.5H77c0,0,16.216,0,39.95,0
	c51.332,0,137.84,0,171.55,0C405.301,461.5,500,366.8,500,250C500,133.191,405.301,38.5,288.5,38.5z"/>
</g></g><g transform="translate(1144,748) scale(0.088,0.088)"><g transform="" style="fill: rgb(60, 58, 3);">
<path  d="M470,38.5h-47c0,0-29.157,0-66.5,0c-5.711,0-11.611,0-17.63,0c-47.461,0-102.168,0-127.37,0
	C94.65,38.5,0,133.222,0,250c0,116.765,94.65,211.5,211.5,211.5c31.48,0,83.041,0,127.37,0c6.035,0,11.932,0,17.63,0
	c37.686,0,66.5,0,66.5,0h47h30v-423H470z"/>
</g></g><g transform="translate(1188,748) scale(0.088,0.088)"><g transform="" style="fill: rgb(60, 58, 3);">
<polygon points="250,38.5 0,38.5 0,461.5 250,461.5 500,461.5 500,38.5 "/>
</g></g><g transform="translate(1232,748) scale(0.088,0.088)"><g transform="" style="fill: rgb(60, 58, 3);">
<path d="M288.5,38.5c-42.907,0-123.188,0-171.55,0c-23.857,0-39.95,0-39.95,0H59.5H30H0v423h30h29.5H77c0,0,16.216,0,39.95,0
	c51.332,0,137.84,0,171.55,0C405.301,461.5,500,366.8,500,250C500,133.191,405.301,38.5,288.5,38.5z"/>
</g></g><g transform="translate(0,792) scale(0.088,0.088)"><g transform="" style="fill: rgb(60, 58, 3);">
<path  d="M470,38.5h-47c0,0-29.157,0-66.5,0c-5.711,0-11.611,0-17.63,0c-47.461,0-102.168,0-127.37,0
	C94.65,38.5,0,133.222,0,250c0,116.765,94.65,211.5,211.5,211.5c31.48,0,83.041,0,127.37,0c6.035,0,11.932,0,17.63,0
	c37.686,0,66.5,0,66.5,0h47h30v-423H470z"/>
</g></g><g transform="translate(44,792) scale(0.088,0.088)"><g transform="" style="fill: rgb(60, 58, 3);">
<polygon points="250,38.5 0,38.5 0,461.5 250,461.5 500,461.5 500,38.5 "/>
</g></g><g transform="translate(88,792) scale(0.088,0.088)"><g transform="" style="fill: rgb(60, 58, 3);">
<polygon points="250,38.5 0,38.5 0,461.5 250,461.5 500,461.5 500,38.5 "/>
</g></g><g transform="translate(132,792) scale(0.088,0.088)"><g transform="" style="fill: rgb(60, 58, 3);">
<path d="M288.5,38.5c-42.907,0-123.188,0-171.55,0c-23.857,0-39.95,0-39.95,0H59.5H30H0v423h30h29.5H77c0,0,16.216,0,39.95,0
	c51.332,0,137.84,0,171.55,0C405.301,461.5,500,366.8,500,250C500,133.191,405.301,38.5,288.5,38.5z"/>
</g></g><g transform="translate(220,792) scale(0.088,0.088)"><g transform="" style="fill: rgb(60, 58, 3);">
<path  d="M470,38.5h-47c0,0-29.157,0-66.5,0c-5.711,0-11.611,0-17.63,0c-47.461,0-102.168,0-127.37,0
	C94.65,38.5,0,133.222,0,250c0,116.765,94.65,211.5,211.5,211.5c31.48,0,83.041,0,127.37,0c6.035,0,11.932,0,17.63,0
	c37.686,0,66.5,0,66.5,0h47h30v-423H470z"/>
</g></g><g transform="translate(264,792) scale(0.088,0.088)"><g transform="" style="fill: rgb(60, 58, 3);">
<polygon points="250,38.5 0,38.5 0,461.5 250,461.5 500,461.5 500,38.5 "/>
</g></g><g transform="translate(308,792) scale(0.088,0.088)"><g transform="" style="fill: rgb(60, 58, 3);">
<path d="M288.5,38.5c-42.907,0-123.188,0-171.55,0c-23.857,0-39.95,0-39.95,0H59.5H30H0v423h30h29.5H77c0,0,16.216,0,39.95,0
	c51.332,0,137.84,0,171.55,0C405.301,461.5,500,366.8,500,250C500,133.191,405.301,38.5,288.5,38.5z"/>
</g></g><g transform="translate(572,792) scale(0.088,0.088)"><g transform="" style="fill: rgb(60, 58, 3);">
<path  d="M470,38.5h-47c0,0-29.157,0-66.5,0c-5.711,0-11.611,0-17.63,0c-47.461,0-102.168,0-127.37,0
	C94.65,38.5,0,133.222,0,250c0,116.765,94.65,211.5,211.5,211.5c31.48,0,83.041,0,127.37,0c6.035,0,11.932,0,17.63,0
	c37.686,0,66.5,0,66.5,0h47h30v-423H470z"/>
</g></g><g transform="translate(616,792) scale(0.088,0.088)"><g transform="" style="fill: rgb(60, 58, 3);">
<path d="M288.5,38.5c-42.907,0-123.188,0-171.55,0c-23.857,0-39.95,0-39.95,0H59.5H30H0v423h30h29.5H77c0,0,16.216,0,39.95,0
	c51.332,0,137.84,0,171.55,0C405.301,461.5,500,366.8,500,250C500,133.191,405.301,38.5,288.5,38.5z"/>
</g></g><g transform="translate(704,792) scale(0.088,0.088)"><g transform="" style="fill: rgb(60, 58, 3);">
<path d="M250,38.5c116.813,0,211.5,94.693,211.5,211.5c0,116.813-94.687,211.5-211.5,211.5c-116.807,0-211.5-94.687-211.5-211.5
	C38.5,133.193,133.193,38.5,250,38.5z"/>
</g></g><g transform="translate(836,792) scale(0.088,0.088)"><g transform="" style="fill: rgb(60, 58, 3);">
<path d="M250,38.5c116.813,0,211.5,94.693,211.5,211.5c0,116.813-94.687,211.5-211.5,211.5c-116.807,0-211.5-94.687-211.5-211.5
	C38.5,133.193,133.193,38.5,250,38.5z"/>
</g></g><g transform="translate(1056,792) scale(0.088,0.088)"><g transform="" style="fill: rgb(60, 58, 3);">
<path  d="M470,38.5h-47c0,0-29.157,0-66.5,0c-5.711,0-11.611,0-17.63,0c-47.461,0-102.168,0-127.37,0
	C94.65,38.5,0,133.222,0,250c0,116.765,94.65,211.5,211.5,211.5c31.48,0,83.041,0,127.37,0c6.035,0,11.932,0,17.63,0
	c37.686,0,66.5,0,66.5,0h47h30v-423H470z"/>
</g></g><g transform="translate(1100,792) scale(0.088,0.088)"><g transform="" style="fill: rgb(60, 58, 3);">
<path d="M288.5,38.5c-42.907,0-123.188,0-171.55,0c-23.857,0-39.95,0-39.95,0H59.5H30H0v423h30h29.5H77c0,0,16.216,0,39.95,0
	c51.332,0,137.84,0,171.55,0C405.301,461.5,500,366.8,500,250C500,133.191,405.301,38.5,288.5,38.5z"/>
</g></g><g transform="translate(1232,792) scale(0.088,0.088)"><g transform="" style="fill: rgb(60, 58, 3);">
<path d="M250,38.5c116.813,0,211.5,94.693,211.5,211.5c0,116.813-94.687,211.5-211.5,211.5c-116.807,0-211.5-94.687-211.5-211.5
	C38.5,133.193,133.193,38.5,250,38.5z"/>
</g></g><g transform="translate(88,836) scale(0.088,0.088)"><g transform="" style="fill: rgb(60, 58, 3);">
<path  d="M470,38.5h-47c0,0-29.157,0-66.5,0c-5.711,0-11.611,0-17.63,0c-47.461,0-102.168,0-127.37,0
	C94.65,38.5,0,133.222,0,250c0,116.765,94.65,211.5,211.5,211.5c31.48,0,83.041,0,127.37,0c6.035,0,11.932,0,17.63,0
	c37.686,0,66.5,0,66.5,0h47h30v-423H470z"/>
</g></g><g transform="translate(132,836) scale(0.088,0.088)"><g transform="" style="fill: rgb(60, 58, 3);">
<polygon points="250,38.5 0,38.5 0,461.5 250,461.5 500,461.5 500,38.5 "/>
</g></g><g transform="translate(176,836) scale(0.088,0.088)"><g transform="" style="fill: rgb(60, 58, 3);">
<polygon points="250,38.5 0,38.5 0,461.5 250,461.5 500,461.5 500,38.5 "/>
</g></g><g transform="translate(220,836) scale(0.088,0.088)"><g transform="" style="fill: rgb(60, 58, 3);">
<path d="M288.5,38.5c-42.907,0-123.188,0-171.55,0c-23.857,0-39.95,0-39.95,0H59.5H30H0v423h30h29.5H77c0,0,16.216,0,39.95,0
	c51.332,0,137.84,0,171.55,0C405.301,461.5,500,366.8,500,250C500,133.191,405.301,38.5,288.5,38.5z"/>
</g></g><g transform="translate(308,836) scale(0.088,0.088)"><g transform="" style="fill: rgb(60, 58, 3);">
<path  d="M470,38.5h-47c0,0-29.157,0-66.5,0c-5.711,0-11.611,0-17.63,0c-47.461,0-102.168,0-127.37,0
	C94.65,38.5,0,133.222,0,250c0,116.765,94.65,211.5,211.5,211.5c31.48,0,83.041,0,127.37,0c6.035,0,11.932,0,17.63,0
	c37.686,0,66.5,0,66.5,0h47h30v-423H470z"/>
</g></g><g transform="translate(352,836) scale(0.088,0.088)"><g transform="" style="fill: rgb(60, 58, 3);">
<path d="M288.5,38.5c-42.907,0-123.188,0-171.55,0c-23.857,0-39.95,0-39.95,0H59.5H30H0v423h30h29.5H77c0,0,16.216,0,39.95,0
	c51.332,0,137.84,0,171.55,0C405.301,461.5,500,366.8,500,250C500,133.191,405.301,38.5,288.5,38.5z"/>
</g></g><g transform="translate(484,836) scale(0.088,0.088)"><g transform="" style="fill: rgb(60, 58, 3);">
<path d="M250,38.5c116.813,0,211.5,94.693,211.5,211.5c0,116.813-94.687,211.5-211.5,211.5c-116.807,0-211.5-94.687-211.5-211.5
	C38.5,133.193,133.193,38.5,250,38.5z"/>
</g></g><g transform="translate(616,836) scale(0.088,0.088)"><g transform="" style="fill: rgb(60, 58, 3);">
<path  d="M470,38.5h-47c0,0-29.157,0-66.5,0c-5.711,0-11.611,0-17.63,0c-47.461,0-102.168,0-127.37,0
	C94.65,38.5,0,133.222,0,250c0,116.765,94.65,211.5,211.5,211.5c31.48,0,83.041,0,127.37,0c6.035,0,11.932,0,17.63,0
	c37.686,0,66.5,0,66.5,0h47h30v-423H470z"/>
</g></g><g transform="translate(660,836) scale(0.088,0.088)"><g transform="" style="fill: rgb(60, 58, 3);">
<polygon points="250,38.5 0,38.5 0,461.5 250,461.5 500,461.5 500,38.5 "/>
</g></g><g transform="translate(704,836) scale(0.088,0.088)"><g transform="" style="fill: rgb(60, 58, 3);">
<path d="M288.5,38.5c-42.907,0-123.188,0-171.55,0c-23.857,0-39.95,0-39.95,0H59.5H30H0v423h30h29.5H77c0,0,16.216,0,39.95,0
	c51.332,0,137.84,0,171.55,0C405.301,461.5,500,366.8,500,250C500,133.191,405.301,38.5,288.5,38.5z"/>
</g></g><g transform="translate(792,836) scale(0.088,0.088)"><g transform="" style="fill: rgb(60, 58, 3);">
<path d="M250,38.5c116.813,0,211.5,94.693,211.5,211.5c0,116.813-94.687,211.5-211.5,211.5c-116.807,0-211.5-94.687-211.5-211.5
	C38.5,133.193,133.193,38.5,250,38.5z"/>
</g></g><g transform="translate(924,836) scale(0.088,0.088)"><g transform="" style="fill: rgb(60, 58, 3);">
<path  d="M470,38.5h-47c0,0-29.157,0-66.5,0c-5.711,0-11.611,0-17.63,0c-47.461,0-102.168,0-127.37,0
	C94.65,38.5,0,133.222,0,250c0,116.765,94.65,211.5,211.5,211.5c31.48,0,83.041,0,127.37,0c6.035,0,11.932,0,17.63,0
	c37.686,0,66.5,0,66.5,0h47h30v-423H470z"/>
</g></g><g transform="translate(968,836) scale(0.088,0.088)"><g transform="" style="fill: rgb(60, 58, 3);">
<path d="M288.5,38.5c-42.907,0-123.188,0-171.55,0c-23.857,0-39.95,0-39.95,0H59.5H30H0v423h30h29.5H77c0,0,16.216,0,39.95,0
	c51.332,0,137.84,0,171.55,0C405.301,461.5,500,366.8,500,250C500,133.191,405.301,38.5,288.5,38.5z"/>
</g></g><g transform="translate(1056,836) scale(0.088,0.088)"><g transform="" style="fill: rgb(60, 58, 3);">
<path d="M250,38.5c116.813,0,211.5,94.693,211.5,211.5c0,116.813-94.687,211.5-211.5,211.5c-116.807,0-211.5-94.687-211.5-211.5
	C38.5,133.193,133.193,38.5,250,38.5z"/>
</g></g><g transform="translate(0,880) scale(0.088,0.088)"><g transform="" style="fill: rgb(60, 58, 3);">
<path  d="M470,38.5h-47c0,0-29.157,0-66.5,0c-5.711,0-11.611,0-17.63,0c-47.461,0-102.168,0-127.37,0
	C94.65,38.5,0,133.222,0,250c0,116.765,94.65,211.5,211.5,211.5c31.48,0,83.041,0,127.37,0c6.035,0,11.932,0,17.63,0
	c37.686,0,66.5,0,66.5,0h47h30v-423H470z"/>
</g></g><g transform="translate(44,880) scale(0.088,0.088)"><g transform="" style="fill: rgb(60, 58, 3);">
<polygon points="250,38.5 0,38.5 0,461.5 250,461.5 500,461.5 500,38.5 "/>
</g></g><g transform="translate(88,880) scale(0.088,0.088)"><g transform="" style="fill: rgb(60, 58, 3);">
<polygon points="250,38.5 0,38.5 0,461.5 250,461.5 500,461.5 500,38.5 "/>
</g></g><g transform="translate(132,880) scale(0.088,0.088)"><g transform="" style="fill: rgb(60, 58, 3);">
<polygon points="250,38.5 0,38.5 0,461.5 250,461.5 500,461.5 500,38.5 "/>
</g></g><g transform="translate(176,880) scale(0.088,0.088)"><g transform="" style="fill: rgb(60, 58, 3);">
<path d="M288.5,38.5c-42.907,0-123.188,0-171.55,0c-23.857,0-39.95,0-39.95,0H59.5H30H0v423h30h29.5H77c0,0,16.216,0,39.95,0
	c51.332,0,137.84,0,171.55,0C405.301,461.5,500,366.8,500,250C500,133.191,405.301,38.5,288.5,38.5z"/>
</g></g><g transform="translate(264,880) scale(0.088,0.088)"><g transform="" style="fill: rgb(60, 58, 3);">
<path  d="M470,38.5h-47c0,0-29.157,0-66.5,0c-5.711,0-11.611,0-17.63,0c-47.461,0-102.168,0-127.37,0
	C94.65,38.5,0,133.222,0,250c0,116.765,94.65,211.5,211.5,211.5c31.48,0,83.041,0,127.37,0c6.035,0,11.932,0,17.63,0
	c37.686,0,66.5,0,66.5,0h47h30v-423H470z"/>
</g></g><g transform="translate(308,880) scale(0.088,0.088)"><g transform="" style="fill: rgb(60, 58, 3);">
<polygon points="250,38.5 0,38.5 0,461.5 250,461.5 500,461.5 500,38.5 "/>
</g></g><g transform="translate(352,880) scale(0.088,0.088)"><g transform="" style="fill: rgb(60, 58, 3);">
<polygon points="250,38.5 0,38.5 0,461.5 250,461.5 500,461.5 500,38.5 "/>
</g></g><g transform="translate(396,880) scale(0.088,0.088)"><g transform="" style="fill: rgb(60, 58, 3);">
<polygon points="250,38.5 0,38.5 0,461.5 250,461.5 500,461.5 500,38.5 "/>
</g></g><g transform="translate(440,880) scale(0.088,0.088)"><g transform="" style="fill: rgb(60, 58, 3);">
<polygon points="250,38.5 0,38.5 0,461.5 250,461.5 500,461.5 500,38.5 "/>
</g></g><g transform="translate(484,880) scale(0.088,0.088)"><g transform="" style="fill: rgb(60, 58, 3);">
<polygon points="250,38.5 0,38.5 0,461.5 250,461.5 500,461.5 500,38.5 "/>
</g></g><g transform="translate(528,880) scale(0.088,0.088)"><g transform="" style="fill: rgb(60, 58, 3);">
<polygon points="250,38.5 0,38.5 0,461.5 250,461.5 500,461.5 500,38.5 "/>
</g></g><g transform="translate(572,880) scale(0.088,0.088)"><g transform="" style="fill: rgb(60, 58, 3);">
<polygon points="250,38.5 0,38.5 0,461.5 250,461.5 500,461.5 500,38.5 "/>
</g></g><g transform="translate(616,880) scale(0.088,0.088)"><g transform="" style="fill: rgb(60, 58, 3);">
<path d="M288.5,38.5c-42.907,0-123.188,0-171.55,0c-23.857,0-39.95,0-39.95,0H59.5H30H0v423h30h29.5H77c0,0,16.216,0,39.95,0
	c51.332,0,137.84,0,171.55,0C405.301,461.5,500,366.8,500,250C500,133.191,405.301,38.5,288.5,38.5z"/>
</g></g><g transform="translate(836,880) scale(0.088,0.088)"><g transform="" style="fill: rgb(60, 58, 3);">
<path  d="M470,38.5h-47c0,0-29.157,0-66.5,0c-5.711,0-11.611,0-17.63,0c-47.461,0-102.168,0-127.37,0
	C94.65,38.5,0,133.222,0,250c0,116.765,94.65,211.5,211.5,211.5c31.48,0,83.041,0,127.37,0c6.035,0,11.932,0,17.63,0
	c37.686,0,66.5,0,66.5,0h47h30v-423H470z"/>
</g></g><g transform="translate(880,880) scale(0.088,0.088)"><g transform="" style="fill: rgb(60, 58, 3);">
<polygon points="250,38.5 0,38.5 0,461.5 250,461.5 500,461.5 500,38.5 "/>
</g></g><g transform="translate(924,880) scale(0.088,0.088)"><g transform="" style="fill: rgb(60, 58, 3);">
<polygon points="250,38.5 0,38.5 0,461.5 250,461.5 500,461.5 500,38.5 "/>
</g></g><g transform="translate(968,880) scale(0.088,0.088)"><g transform="" style="fill: rgb(60, 58, 3);">
<polygon points="250,38.5 0,38.5 0,461.5 250,461.5 500,461.5 500,38.5 "/>
</g></g><g transform="translate(1012,880) scale(0.088,0.088)"><g transform="" style="fill: rgb(60, 58, 3);">
<polygon points="250,38.5 0,38.5 0,461.5 250,461.5 500,461.5 500,38.5 "/>
</g></g><g transform="translate(1056,880) scale(0.088,0.088)"><g transform="" style="fill: rgb(60, 58, 3);">
<polygon points="250,38.5 0,38.5 0,461.5 250,461.5 500,461.5 500,38.5 "/>
</g></g><g transform="translate(1100,880) scale(0.088,0.088)"><g transform="" style="fill: rgb(60, 58, 3);">
<path d="M288.5,38.5c-42.907,0-123.188,0-171.55,0c-23.857,0-39.95,0-39.95,0H59.5H30H0v423h30h29.5H77c0,0,16.216,0,39.95,0
	c51.332,0,137.84,0,171.55,0C405.301,461.5,500,366.8,500,250C500,133.191,405.301,38.5,288.5,38.5z"/>
</g></g><g transform="translate(1188,880) scale(0.088,0.088)"><g transform="" style="fill: rgb(60, 58, 3);">
<path d="M250,38.5c116.813,0,211.5,94.693,211.5,211.5c0,116.813-94.687,211.5-211.5,211.5c-116.807,0-211.5-94.687-211.5-211.5
	C38.5,133.193,133.193,38.5,250,38.5z"/>
</g></g><g transform="translate(352,924) scale(0.088,0.088)"><g transform="" style="fill: rgb(60, 58, 3);">
<path  d="M470,38.5h-47c0,0-29.157,0-66.5,0c-5.711,0-11.611,0-17.63,0c-47.461,0-102.168,0-127.37,0
	C94.65,38.5,0,133.222,0,250c0,116.765,94.65,211.5,211.5,211.5c31.48,0,83.041,0,127.37,0c6.035,0,11.932,0,17.63,0
	c37.686,0,66.5,0,66.5,0h47h30v-423H470z"/>
</g></g><g transform="translate(396,924) scale(0.088,0.088)"><g transform="" style="fill: rgb(60, 58, 3);">
<polygon points="250,38.5 0,38.5 0,461.5 250,461.5 500,461.5 500,38.5 "/>
</g></g><g transform="translate(440,924) scale(0.088,0.088)"><g transform="" style="fill: rgb(60, 58, 3);">
<path d="M288.5,38.5c-42.907,0-123.188,0-171.55,0c-23.857,0-39.95,0-39.95,0H59.5H30H0v423h30h29.5H77c0,0,16.216,0,39.95,0
	c51.332,0,137.84,0,171.55,0C405.301,461.5,500,366.8,500,250C500,133.191,405.301,38.5,288.5,38.5z"/>
</g></g><g transform="translate(528,924) scale(0.088,0.088)"><g transform="" style="fill: rgb(60, 58, 3);">
<path  d="M470,38.5h-47c0,0-29.157,0-66.5,0c-5.711,0-11.611,0-17.63,0c-47.461,0-102.168,0-127.37,0
	C94.65,38.5,0,133.222,0,250c0,116.765,94.65,211.5,211.5,211.5c31.48,0,83.041,0,127.37,0c6.035,0,11.932,0,17.63,0
	c37.686,0,66.5,0,66.5,0h47h30v-423H470z"/>
</g></g><g transform="translate(572,924) scale(0.088,0.088)"><g transform="" style="fill: rgb(60, 58, 3);">
<polygon points="250,38.5 0,38.5 0,461.5 250,461.5 500,461.5 500,38.5 "/>
</g></g><g transform="translate(616,924) scale(0.088,0.088)"><g transform="" style="fill: rgb(60, 58, 3);">
<path d="M288.5,38.5c-42.907,0-123.188,0-171.55,0c-23.857,0-39.95,0-39.95,0H59.5H30H0v423h30h29.5H77c0,0,16.216,0,39.95,0
	c51.332,0,137.84,0,171.55,0C405.301,461.5,500,366.8,500,250C500,133.191,405.301,38.5,288.5,38.5z"/>
</g></g><g transform="translate(748,924) scale(0.088,0.088)"><g transform="" style="fill: rgb(60, 58, 3);">
<path d="M250,38.5c116.813,0,211.5,94.693,211.5,211.5c0,116.813-94.687,211.5-211.5,211.5c-116.807,0-211.5-94.687-211.5-211.5
	C38.5,133.193,133.193,38.5,250,38.5z"/>
</g></g><g transform="translate(880,924) scale(0.088,0.088)"><g transform="" style="fill: rgb(60, 58, 3);">
<path d="M250,38.5c116.813,0,211.5,94.693,211.5,211.5c0,116.813-94.687,211.5-211.5,211.5c-116.807,0-211.5-94.687-211.5-211.5
	C38.5,133.193,133.193,38.5,250,38.5z"/>
</g></g><g transform="translate(1056,924) scale(0.088,0.088)"><g transform="" style="fill: rgb(60, 58, 3);">
<path  d="M470,38.5h-47c0,0-29.157,0-66.5,0c-5.711,0-11.611,0-17.63,0c-47.461,0-102.168,0-127.37,0
	C94.65,38.5,0,133.222,0,250c0,116.765,94.65,211.5,211.5,211.5c31.48,0,83.041,0,127.37,0c6.035,0,11.932,0,17.63,0
	c37.686,0,66.5,0,66.5,0h47h30v-423H470z"/>
</g></g><g transform="translate(1100,924) scale(0.088,0.088)"><g transform="" style="fill: rgb(60, 58, 3);">
<polygon points="250,38.5 0,38.5 0,461.5 250,461.5 500,461.5 500,38.5 "/>
</g></g><g transform="translate(1144,924) scale(0.088,0.088)"><g transform="" style="fill: rgb(60, 58, 3);">
<path d="M288.5,38.5c-42.907,0-123.188,0-171.55,0c-23.857,0-39.95,0-39.95,0H59.5H30H0v423h30h29.5H77c0,0,16.216,0,39.95,0
	c51.332,0,137.84,0,171.55,0C405.301,461.5,500,366.8,500,250C500,133.191,405.301,38.5,288.5,38.5z"/>
</g></g><g transform="translate(1232,924) scale(0.088,0.088)"><g transform="" style="fill: rgb(60, 58, 3);">
<path d="M250,38.5c116.813,0,211.5,94.693,211.5,211.5c0,116.813-94.687,211.5-211.5,211.5c-116.807,0-211.5-94.687-211.5-211.5
	C38.5,133.193,133.193,38.5,250,38.5z"/>
</g></g><g transform="translate(352,968) scale(0.088,0.088)"><g transform="" style="fill: rgb(60, 58, 3);">
<path  d="M470,38.5h-47c0,0-29.157,0-66.5,0c-5.711,0-11.611,0-17.63,0c-47.461,0-102.168,0-127.37,0
	C94.65,38.5,0,133.222,0,250c0,116.765,94.65,211.5,211.5,211.5c31.48,0,83.041,0,127.37,0c6.035,0,11.932,0,17.63,0
	c37.686,0,66.5,0,66.5,0h47h30v-423H470z"/>
</g></g><g transform="translate(396,968) scale(0.088,0.088)"><g transform="" style="fill: rgb(60, 58, 3);">
<path d="M288.5,38.5c-42.907,0-123.188,0-171.55,0c-23.857,0-39.95,0-39.95,0H59.5H30H0v423h30h29.5H77c0,0,16.216,0,39.95,0
	c51.332,0,137.84,0,171.55,0C405.301,461.5,500,366.8,500,250C500,133.191,405.301,38.5,288.5,38.5z"/>
</g></g><g transform="translate(528,968) scale(0.088,0.088)"><g transform="" style="fill: rgb(60, 58, 3);">
<path d="M250,38.5c116.813,0,211.5,94.693,211.5,211.5c0,116.813-94.687,211.5-211.5,211.5c-116.807,0-211.5-94.687-211.5-211.5
	C38.5,133.193,133.193,38.5,250,38.5z"/>
</g></g><g transform="translate(660,968) scale(0.088,0.088)"><g transform="" style="fill: rgb(60, 58, 3);">
<path d="M250,38.5c116.813,0,211.5,94.693,211.5,211.5c0,116.813-94.687,211.5-211.5,211.5c-116.807,0-211.5-94.687-211.5-211.5
	C38.5,133.193,133.193,38.5,250,38.5z"/>
</g></g><g transform="translate(748,968) scale(0.088,0.088)"><g transform="" style="fill: rgb(60, 58, 3);">
<path d="M250,38.5c116.813,0,211.5,94.693,211.5,211.5c0,116.813-94.687,211.5-211.5,211.5c-116.807,0-211.5-94.687-211.5-211.5
	C38.5,133.193,133.193,38.5,250,38.5z"/>
</g></g><g transform="translate(880,968) scale(0.088,0.088)"><g transform="" style="fill: rgb(60, 58, 3);">
<path d="M250,38.5c116.813,0,211.5,94.693,211.5,211.5c0,116.813-94.687,211.5-211.5,211.5c-116.807,0-211.5-94.687-211.5-211.5
	C38.5,133.193,133.193,38.5,250,38.5z"/>
</g></g><g transform="translate(968,968) scale(0.088,0.088)"><g transform="" style="fill: rgb(60, 58, 3);">
<path d="M250,38.5c116.813,0,211.5,94.693,211.5,211.5c0,116.813-94.687,211.5-211.5,211.5c-116.807,0-211.5-94.687-211.5-211.5
	C38.5,133.193,133.193,38.5,250,38.5z"/>
</g></g><g transform="translate(1056,968) scale(0.088,0.088)"><g transform="" style="fill: rgb(60, 58, 3);">
<path d="M250,38.5c116.813,0,211.5,94.693,211.5,211.5c0,116.813-94.687,211.5-211.5,211.5c-116.807,0-211.5-94.687-211.5-211.5
	C38.5,133.193,133.193,38.5,250,38.5z"/>
</g></g><g transform="translate(1232,968) scale(0.088,0.088)"><g transform="" style="fill: rgb(60, 58, 3);">
<path d="M250,38.5c116.813,0,211.5,94.693,211.5,211.5c0,116.813-94.687,211.5-211.5,211.5c-116.807,0-211.5-94.687-211.5-211.5
	C38.5,133.193,133.193,38.5,250,38.5z"/>
</g></g><g transform="translate(484,1012) scale(0.088,0.088)"><g transform="" style="fill: rgb(60, 58, 3);">
<path d="M250,38.5c116.813,0,211.5,94.693,211.5,211.5c0,116.813-94.687,211.5-211.5,211.5c-116.807,0-211.5-94.687-211.5-211.5
	C38.5,133.193,133.193,38.5,250,38.5z"/>
</g></g><g transform="translate(572,1012) scale(0.088,0.088)"><g transform="" style="fill: rgb(60, 58, 3);">
<path d="M250,38.5c116.813,0,211.5,94.693,211.5,211.5c0,116.813-94.687,211.5-211.5,211.5c-116.807,0-211.5-94.687-211.5-211.5
	C38.5,133.193,133.193,38.5,250,38.5z"/>
</g></g><g transform="translate(792,1012) scale(0.088,0.088)"><g transform="" style="fill: rgb(60, 58, 3);">
<path  d="M470,38.5h-47c0,0-29.157,0-66.5,0c-5.711,0-11.611,0-17.63,0c-47.461,0-102.168,0-127.37,0
	C94.65,38.5,0,133.222,0,250c0,116.765,94.65,211.5,211.5,211.5c31.48,0,83.041,0,127.37,0c6.035,0,11.932,0,17.63,0
	c37.686,0,66.5,0,66.5,0h47h30v-423H470z"/>
</g></g><g transform="translate(836,1012) scale(0.088,0.088)"><g transform="" style="fill: rgb(60, 58, 3);">
<polygon points="250,38.5 0,38.5 0,461.5 250,461.5 500,461.5 500,38.5 "/>
</g></g><g transform="translate(880,1012) scale(0.088,0.088)"><g transform="" style="fill: rgb(60, 58, 3);">
<path d="M288.5,38.5c-42.907,0-123.188,0-171.55,0c-23.857,0-39.95,0-39.95,0H59.5H30H0v423h30h29.5H77c0,0,16.216,0,39.95,0
	c51.332,0,137.84,0,171.55,0C405.301,461.5,500,366.8,500,250C500,133.191,405.301,38.5,288.5,38.5z"/>
</g></g><g transform="translate(1056,1012) scale(0.088,0.088)"><g transform="" style="fill: rgb(60, 58, 3);">
<path d="M250,38.5c116.813,0,211.5,94.693,211.5,211.5c0,116.813-94.687,211.5-211.5,211.5c-116.807,0-211.5-94.687-211.5-211.5
	C38.5,133.193,133.193,38.5,250,38.5z"/>
</g></g><g transform="translate(1188,1012) scale(0.088,0.088)"><g transform="" style="fill: rgb(60, 58, 3);">
<path d="M250,38.5c116.813,0,211.5,94.693,211.5,211.5c0,116.813-94.687,211.5-211.5,211.5c-116.807,0-211.5-94.687-211.5-211.5
	C38.5,133.193,133.193,38.5,250,38.5z"/>
</g></g><g transform="translate(440,1056) scale(0.088,0.088)"><g transform="" style="fill: rgb(60, 58, 3);">
<path  d="M470,38.5h-47c0,0-29.157,0-66.5,0c-5.711,0-11.611,0-17.63,0c-47.461,0-102.168,0-127.37,0
	C94.65,38.5,0,133.222,0,250c0,116.765,94.65,211.5,211.5,211.5c31.48,0,83.041,0,127.37,0c6.035,0,11.932,0,17.63,0
	c37.686,0,66.5,0,66.5,0h47h30v-423H470z"/>
</g></g><g transform="translate(484,1056) scale(0.088,0.088)"><g transform="" style="fill: rgb(60, 58, 3);">
<path d="M288.5,38.5c-42.907,0-123.188,0-171.55,0c-23.857,0-39.95,0-39.95,0H59.5H30H0v423h30h29.5H77c0,0,16.216,0,39.95,0
	c51.332,0,137.84,0,171.55,0C405.301,461.5,500,366.8,500,250C500,133.191,405.301,38.5,288.5,38.5z"/>
</g></g><g transform="translate(572,1056) scale(0.088,0.088)"><g transform="" style="fill: rgb(60, 58, 3);">
<path d="M250,38.5c116.813,0,211.5,94.693,211.5,211.5c0,116.813-94.687,211.5-211.5,211.5c-116.807,0-211.5-94.687-211.5-211.5
	C38.5,133.193,133.193,38.5,250,38.5z"/>
</g></g><g transform="translate(660,1056) scale(0.088,0.088)"><g transform="" style="fill: rgb(60, 58, 3);">
<path  d="M470,38.5h-47c0,0-29.157,0-66.5,0c-5.711,0-11.611,0-17.63,0c-47.461,0-102.168,0-127.37,0
	C94.65,38.5,0,133.222,0,250c0,116.765,94.65,211.5,211.5,211.5c31.48,0,83.041,0,127.37,0c6.035,0,11.932,0,17.63,0
	c37.686,0,66.5,0,66.5,0h47h30v-423H470z"/>
</g></g><g transform="translate(704,1056) scale(0.088,0.088)"><g transform="" style="fill: rgb(60, 58, 3);">
<path d="M288.5,38.5c-42.907,0-123.188,0-171.55,0c-23.857,0-39.95,0-39.95,0H59.5H30H0v423h30h29.5H77c0,0,16.216,0,39.95,0
	c51.332,0,137.84,0,171.55,0C405.301,461.5,500,366.8,500,250C500,133.191,405.301,38.5,288.5,38.5z"/>
</g></g><g transform="translate(792,1056) scale(0.088,0.088)"><g transform="" style="fill: rgb(60, 58, 3);">
<path  d="M470,38.5h-47c0,0-29.157,0-66.5,0c-5.711,0-11.611,0-17.63,0c-47.461,0-102.168,0-127.37,0
	C94.65,38.5,0,133.222,0,250c0,116.765,94.65,211.5,211.5,211.5c31.48,0,83.041,0,127.37,0c6.035,0,11.932,0,17.63,0
	c37.686,0,66.5,0,66.5,0h47h30v-423H470z"/>
</g></g><g transform="translate(836,1056) scale(0.088,0.088)"><g transform="" style="fill: rgb(60, 58, 3);">
<polygon points="250,38.5 0,38.5 0,461.5 250,461.5 500,461.5 500,38.5 "/>
</g></g><g transform="translate(880,1056) scale(0.088,0.088)"><g transform="" style="fill: rgb(60, 58, 3);">
<polygon points="250,38.5 0,38.5 0,461.5 250,461.5 500,461.5 500,38.5 "/>
</g></g><g transform="translate(924,1056) scale(0.088,0.088)"><g transform="" style="fill: rgb(60, 58, 3);">
<polygon points="250,38.5 0,38.5 0,461.5 250,461.5 500,461.5 500,38.5 "/>
</g></g><g transform="translate(968,1056) scale(0.088,0.088)"><g transform="" style="fill: rgb(60, 58, 3);">
<polygon points="250,38.5 0,38.5 0,461.5 250,461.5 500,461.5 500,38.5 "/>
</g></g><g transform="translate(1012,1056) scale(0.088,0.088)"><g transform="" style="fill: rgb(60, 58, 3);">
<polygon points="250,38.5 0,38.5 0,461.5 250,461.5 500,461.5 500,38.5 "/>
</g></g><g transform="translate(1056,1056) scale(0.088,0.088)"><g transform="" style="fill: rgb(60, 58, 3);">
<polygon points="250,38.5 0,38.5 0,461.5 250,461.5 500,461.5 500,38.5 "/>
</g></g><g transform="translate(1100,1056) scale(0.088,0.088)"><g transform="" style="fill: rgb(60, 58, 3);">
<path d="M288.5,38.5c-42.907,0-123.188,0-171.55,0c-23.857,0-39.95,0-39.95,0H59.5H30H0v423h30h29.5H77c0,0,16.216,0,39.95,0
	c51.332,0,137.84,0,171.55,0C405.301,461.5,500,366.8,500,250C500,133.191,405.301,38.5,288.5,38.5z"/>
</g></g><g transform="translate(572,1100) scale(0.088,0.088)"><g transform="" style="fill: rgb(60, 58, 3);">
<path d="M250,38.5c116.813,0,211.5,94.693,211.5,211.5c0,116.813-94.687,211.5-211.5,211.5c-116.807,0-211.5-94.687-211.5-211.5
	C38.5,133.193,133.193,38.5,250,38.5z"/>
</g></g><g transform="translate(704,1100) scale(0.088,0.088)"><g transform="" style="fill: rgb(60, 58, 3);">
<path  d="M470,38.5h-47c0,0-29.157,0-66.5,0c-5.711,0-11.611,0-17.63,0c-47.461,0-102.168,0-127.37,0
	C94.65,38.5,0,133.222,0,250c0,116.765,94.65,211.5,211.5,211.5c31.48,0,83.041,0,127.37,0c6.035,0,11.932,0,17.63,0
	c37.686,0,66.5,0,66.5,0h47h30v-423H470z"/>
</g></g><g transform="translate(748,1100) scale(0.088,0.088)"><g transform="" style="fill: rgb(60, 58, 3);">
<path d="M288.5,38.5c-42.907,0-123.188,0-171.55,0c-23.857,0-39.95,0-39.95,0H59.5H30H0v423h30h29.5H77c0,0,16.216,0,39.95,0
	c51.332,0,137.84,0,171.55,0C405.301,461.5,500,366.8,500,250C500,133.191,405.301,38.5,288.5,38.5z"/>
</g></g><g transform="translate(924,1100) scale(0.088,0.088)"><g transform="" style="fill: rgb(60, 58, 3);">
<path d="M250,38.5c116.813,0,211.5,94.693,211.5,211.5c0,116.813-94.687,211.5-211.5,211.5c-116.807,0-211.5-94.687-211.5-211.5
	C38.5,133.193,133.193,38.5,250,38.5z"/>
</g></g><g transform="translate(1056,1100) scale(0.088,0.088)"><g transform="" style="fill: rgb(60, 58, 3);">
<path  d="M470,38.5h-47c0,0-29.157,0-66.5,0c-5.711,0-11.611,0-17.63,0c-47.461,0-102.168,0-127.37,0
	C94.65,38.5,0,133.222,0,250c0,116.765,94.65,211.5,211.5,211.5c31.48,0,83.041,0,127.37,0c6.035,0,11.932,0,17.63,0
	c37.686,0,66.5,0,66.5,0h47h30v-423H470z"/>
</g></g><g transform="translate(1100,1100) scale(0.088,0.088)"><g transform="" style="fill: rgb(60, 58, 3);">
<polygon points="250,38.5 0,38.5 0,461.5 250,461.5 500,461.5 500,38.5 "/>
</g></g><g transform="translate(1144,1100) scale(0.088,0.088)"><g transform="" style="fill: rgb(60, 58, 3);">
<polygon points="250,38.5 0,38.5 0,461.5 250,461.5 500,461.5 500,38.5 "/>
</g></g><g transform="translate(1188,1100) scale(0.088,0.088)"><g transform="" style="fill: rgb(60, 58, 3);">
<path d="M288.5,38.5c-42.907,0-123.188,0-171.55,0c-23.857,0-39.95,0-39.95,0H59.5H30H0v423h30h29.5H77c0,0,16.216,0,39.95,0
	c51.332,0,137.84,0,171.55,0C405.301,461.5,500,366.8,500,250C500,133.191,405.301,38.5,288.5,38.5z"/>
</g></g><g transform="translate(352,1144) scale(0.088,0.088)"><g transform="" style="fill: rgb(60, 58, 3);">
<path  d="M470,38.5h-47c0,0-29.157,0-66.5,0c-5.711,0-11.611,0-17.63,0c-47.461,0-102.168,0-127.37,0
	C94.65,38.5,0,133.222,0,250c0,116.765,94.65,211.5,211.5,211.5c31.48,0,83.041,0,127.37,0c6.035,0,11.932,0,17.63,0
	c37.686,0,66.5,0,66.5,0h47h30v-423H470z"/>
</g></g><g transform="translate(396,1144) scale(0.088,0.088)"><g transform="" style="fill: rgb(60, 58, 3);">
<path d="M288.5,38.5c-42.907,0-123.188,0-171.55,0c-23.857,0-39.95,0-39.95,0H59.5H30H0v423h30h29.5H77c0,0,16.216,0,39.95,0
	c51.332,0,137.84,0,171.55,0C405.301,461.5,500,366.8,500,250C500,133.191,405.301,38.5,288.5,38.5z"/>
</g></g><g transform="translate(484,1144) scale(0.088,0.088)"><g transform="" style="fill: rgb(60, 58, 3);">
<path  d="M470,38.5h-47c0,0-29.157,0-66.5,0c-5.711,0-11.611,0-17.63,0c-47.461,0-102.168,0-127.37,0
	C94.65,38.5,0,133.222,0,250c0,116.765,94.65,211.5,211.5,211.5c31.48,0,83.041,0,127.37,0c6.035,0,11.932,0,17.63,0
	c37.686,0,66.5,0,66.5,0h47h30v-423H470z"/>
</g></g><g transform="translate(528,1144) scale(0.088,0.088)"><g transform="" style="fill: rgb(60, 58, 3);">
<path d="M288.5,38.5c-42.907,0-123.188,0-171.55,0c-23.857,0-39.95,0-39.95,0H59.5H30H0v423h30h29.5H77c0,0,16.216,0,39.95,0
	c51.332,0,137.84,0,171.55,0C405.301,461.5,500,366.8,500,250C500,133.191,405.301,38.5,288.5,38.5z"/>
</g></g><g transform="translate(704,1144) scale(0.088,0.088)"><g transform="" style="fill: rgb(60, 58, 3);">
<path d="M250,38.5c116.813,0,211.5,94.693,211.5,211.5c0,116.813-94.687,211.5-211.5,211.5c-116.807,0-211.5-94.687-211.5-211.5
	C38.5,133.193,133.193,38.5,250,38.5z"/>
</g></g><g transform="translate(836,1144) scale(0.088,0.088)"><g transform="" style="fill: rgb(60, 58, 3);">
<path d="M250,38.5c116.813,0,211.5,94.693,211.5,211.5c0,116.813-94.687,211.5-211.5,211.5c-116.807,0-211.5-94.687-211.5-211.5
	C38.5,133.193,133.193,38.5,250,38.5z"/>
</g></g><g transform="translate(1056,1144) scale(0.088,0.088)"><g transform="" style="fill: rgb(60, 58, 3);">
<path d="M250,38.5c116.813,0,211.5,94.693,211.5,211.5c0,116.813-94.687,211.5-211.5,211.5c-116.807,0-211.5-94.687-211.5-211.5
	C38.5,133.193,133.193,38.5,250,38.5z"/>
</g></g><g transform="translate(1188,1144) scale(0.088,0.088)"><g transform="" style="fill: rgb(60, 58, 3);">
<path  d="M470,38.5h-47c0,0-29.157,0-66.5,0c-5.711,0-11.611,0-17.63,0c-47.461,0-102.168,0-127.37,0
	C94.65,38.5,0,133.222,0,250c0,116.765,94.65,211.5,211.5,211.5c31.48,0,83.041,0,127.37,0c6.035,0,11.932,0,17.63,0
	c37.686,0,66.5,0,66.5,0h47h30v-423H470z"/>
</g></g><g transform="translate(1232,1144) scale(0.088,0.088)"><g transform="" style="fill: rgb(60, 58, 3);">
<path d="M288.5,38.5c-42.907,0-123.188,0-171.55,0c-23.857,0-39.95,0-39.95,0H59.5H30H0v423h30h29.5H77c0,0,16.216,0,39.95,0
	c51.332,0,137.84,0,171.55,0C405.301,461.5,500,366.8,500,250C500,133.191,405.301,38.5,288.5,38.5z"/>
</g></g><g transform="translate(396,1188) scale(0.088,0.088)"><g transform="" style="fill: rgb(60, 58, 3);">
<path d="M250,38.5c116.813,0,211.5,94.693,211.5,211.5c0,116.813-94.687,211.5-211.5,211.5c-116.807,0-211.5-94.687-211.5-211.5
	C38.5,133.193,133.193,38.5,250,38.5z"/>
</g></g><g transform="translate(528,1188) scale(0.088,0.088)"><g transform="" style="fill: rgb(60, 58, 3);">
<path d="M250,38.5c116.813,0,211.5,94.693,211.5,211.5c0,116.813-94.687,211.5-211.5,211.5c-116.807,0-211.5-94.687-211.5-211.5
	C38.5,133.193,133.193,38.5,250,38.5z"/>
</g></g><g transform="translate(660,1188) scale(0.088,0.088)"><g transform="" style="fill: rgb(60, 58, 3);">
<path  d="M470,38.5h-47c0,0-29.157,0-66.5,0c-5.711,0-11.611,0-17.63,0c-47.461,0-102.168,0-127.37,0
	C94.65,38.5,0,133.222,0,250c0,116.765,94.65,211.5,211.5,211.5c31.48,0,83.041,0,127.37,0c6.035,0,11.932,0,17.63,0
	c37.686,0,66.5,0,66.5,0h47h30v-423H470z"/>
</g></g><g transform="translate(704,1188) scale(0.088,0.088)"><g transform="" style="fill: rgb(60, 58, 3);">
<path d="M288.5,38.5c-42.907,0-123.188,0-171.55,0c-23.857,0-39.95,0-39.95,0H59.5H30H0v423h30h29.5H77c0,0,16.216,0,39.95,0
	c51.332,0,137.84,0,171.55,0C405.301,461.5,500,366.8,500,250C500,133.191,405.301,38.5,288.5,38.5z"/>
</g></g><g transform="translate(792,1188) scale(0.088,0.088)"><g transform="" style="fill: rgb(60, 58, 3);">
<path d="M250,38.5c116.813,0,211.5,94.693,211.5,211.5c0,116.813-94.687,211.5-211.5,211.5c-116.807,0-211.5-94.687-211.5-211.5
	C38.5,133.193,133.193,38.5,250,38.5z"/>
</g></g><g transform="translate(880,1188) scale(0.088,0.088)"><g transform="" style="fill: rgb(60, 58, 3);">
<path d="M250,38.5c116.813,0,211.5,94.693,211.5,211.5c0,116.813-94.687,211.5-211.5,211.5c-116.807,0-211.5-94.687-211.5-211.5
	C38.5,133.193,133.193,38.5,250,38.5z"/>
</g></g><g transform="translate(1100,1188) scale(0.088,0.088)"><g transform="" style="fill: rgb(60, 58, 3);">
<path d="M250,38.5c116.813,0,211.5,94.693,211.5,211.5c0,116.813-94.687,211.5-211.5,211.5c-116.807,0-211.5-94.687-211.5-211.5
	C38.5,133.193,133.193,38.5,250,38.5z"/>
</g></g><g transform="translate(352,1232) scale(0.088,0.088)"><g transform="" style="fill: rgb(60, 58, 3);">
<path  d="M470,38.5h-47c0,0-29.157,0-66.5,0c-5.711,0-11.611,0-17.63,0c-47.461,0-102.168,0-127.37,0
	C94.65,38.5,0,133.222,0,250c0,116.765,94.65,211.5,211.5,211.5c31.48,0,83.041,0,127.37,0c6.035,0,11.932,0,17.63,0
	c37.686,0,66.5,0,66.5,0h47h30v-423H470z"/>
</g></g><g transform="translate(396,1232) scale(0.088,0.088)"><g transform="" style="fill: rgb(60, 58, 3);">
<path d="M288.5,38.5c-42.907,0-123.188,0-171.55,0c-23.857,0-39.95,0-39.95,0H59.5H30H0v423h30h29.5H77c0,0,16.216,0,39.95,0
	c51.332,0,137.84,0,171.55,0C405.301,461.5,500,366.8,500,250C500,133.191,405.301,38.5,288.5,38.5z"/>
</g></g><g transform="translate(484,1232) scale(0.088,0.088)"><g transform="" style="fill: rgb(60, 58, 3);">
<path d="M250,38.5c116.813,0,211.5,94.693,211.5,211.5c0,116.813-94.687,211.5-211.5,211.5c-116.807,0-211.5-94.687-211.5-211.5
	C38.5,133.193,133.193,38.5,250,38.5z"/>
</g></g><g transform="translate(572,1232) scale(0.088,0.088)"><g transform="" style="fill: rgb(60, 58, 3);">
<path  d="M470,38.5h-47c0,0-29.157,0-66.5,0c-5.711,0-11.611,0-17.63,0c-47.461,0-102.168,0-127.37,0
	C94.65,38.5,0,133.222,0,250c0,116.765,94.65,211.5,211.5,211.5c31.48,0,83.041,0,127.37,0c6.035,0,11.932,0,17.63,0
	c37.686,0,66.5,0,66.5,0h47h30v-423H470z"/>
</g></g><g transform="translate(616,1232) scale(0.088,0.088)"><g transform="" style="fill: rgb(60, 58, 3);">
<path d="M288.5,38.5c-42.907,0-123.188,0-171.55,0c-23.857,0-39.95,0-39.95,0H59.5H30H0v423h30h29.5H77c0,0,16.216,0,39.95,0
	c51.332,0,137.84,0,171.55,0C405.301,461.5,500,366.8,500,250C500,133.191,405.301,38.5,288.5,38.5z"/>
</g></g><g transform="translate(704,1232) scale(0.088,0.088)"><g transform="" style="fill: rgb(60, 58, 3);">
<path  d="M470,38.5h-47c0,0-29.157,0-66.5,0c-5.711,0-11.611,0-17.63,0c-47.461,0-102.168,0-127.37,0
	C94.65,38.5,0,133.222,0,250c0,116.765,94.65,211.5,211.5,211.5c31.48,0,83.041,0,127.37,0c6.035,0,11.932,0,17.63,0
	c37.686,0,66.5,0,66.5,0h47h30v-423H470z"/>
</g></g><g transform="translate(748,1232) scale(0.088,0.088)"><g transform="" style="fill: rgb(60, 58, 3);">
<polygon points="250,38.5 0,38.5 0,461.5 250,461.5 500,461.5 500,38.5 "/>
</g></g><g transform="translate(792,1232) scale(0.088,0.088)"><g transform="" style="fill: rgb(60, 58, 3);">
<path d="M288.5,38.5c-42.907,0-123.188,0-171.55,0c-23.857,0-39.95,0-39.95,0H59.5H30H0v423h30h29.5H77c0,0,16.216,0,39.95,0
	c51.332,0,137.84,0,171.55,0C405.301,461.5,500,366.8,500,250C500,133.191,405.301,38.5,288.5,38.5z"/>
</g></g><g transform="translate(880,1232) scale(0.088,0.088)"><g transform="" style="fill: rgb(60, 58, 3);">
<path d="M250,38.5c116.813,0,211.5,94.693,211.5,211.5c0,116.813-94.687,211.5-211.5,211.5c-116.807,0-211.5-94.687-211.5-211.5
	C38.5,133.193,133.193,38.5,250,38.5z"/>
</g></g><g transform="translate(1100,1232) scale(0.088,0.088)"><g transform="" style="fill: rgb(60, 58, 3);">
<path d="M250,38.5c116.813,0,211.5,94.693,211.5,211.5c0,116.813-94.687,211.5-211.5,211.5c-116.807,0-211.5-94.687-211.5-211.5
	C38.5,133.193,133.193,38.5,250,38.5z"/>
</g></g><g transform="translate(1232,1232) scale(0.088,0.088)"><g transform="" style="fill: rgb(60, 58, 3);">
<path d="M250,38.5c116.813,0,211.5,94.693,211.5,211.5c0,116.813-94.687,211.5-211.5,211.5c-116.807,0-211.5-94.687-211.5-211.5
	C38.5,133.193,133.193,38.5,250,38.5z"/>
</g></g><g transform="translate(0,0) scale(3.08, 3.08)"><g transform="" style="fill: rgb(60, 58, 3);">
<g>
	<path style="fill:none;" d="M65.859,15.008H34.141c-4.082,0-7.869,1.258-10.979,3.398c-2.419,1.665-4.428,3.864-5.848,6.421
		C15.838,27.484,15,30.526,15,33.758v32.471c0,10.344,8.586,18.76,19.145,18.76L50,84.992l15.855-0.004
		C76.414,84.988,85,76.572,85,66.229V33.758C85,23.419,76.414,15.008,65.859,15.008z"/>
	<path d="M65.859,0.008H34.141h0C18.683,0.008,5.587,10.221,1.4,24.18c-0.433,1.444-0.771,2.928-1.006,4.445
		C0.135,30.299,0,32.013,0,33.758v32.471c0,18.619,15.32,33.76,34.141,33.76L50,99.992l15.859-0.004
		c18.82,0,34.141-15.141,34.141-33.76V33.758C100,15.148,84.68,0.008,65.859,0.008z M85,66.229c0,10.344-8.586,18.76-19.145,18.76
		L50,84.992l-15.855-0.004C23.586,84.988,15,76.572,15,66.229V33.758c0-3.231,0.838-6.273,2.313-8.931
		c1.42-2.557,3.429-4.756,5.848-6.421c3.11-2.141,6.897-3.398,10.979-3.398h31.719C76.414,15.008,85,23.419,85,33.758V66.229z"/>
</g>
</g></g><g transform="translate(968,0) scale(3.08, 3.08)"><g transform="" style="fill: rgb(60, 58, 3);">
<g>
	<path style="fill:none;" d="M65.859,15.008H34.141c-4.082,0-7.869,1.258-10.979,3.398c-2.419,1.665-4.428,3.864-5.848,6.421
		C15.838,27.484,15,30.526,15,33.758v32.471c0,10.344,8.586,18.76,19.145,18.76L50,84.992l15.855-0.004
		C76.414,84.988,85,76.572,85,66.229V33.758C85,23.419,76.414,15.008,65.859,15.008z"/>
	<path d="M65.859,0.008H34.141h0C18.683,0.008,5.587,10.221,1.4,24.18c-0.433,1.444-0.771,2.928-1.006,4.445
		C0.135,30.299,0,32.013,0,33.758v32.471c0,18.619,15.32,33.76,34.141,33.76L50,99.992l15.859-0.004
		c18.82,0,34.141-15.141,34.141-33.76V33.758C100,15.148,84.68,0.008,65.859,0.008z M85,66.229c0,10.344-8.586,18.76-19.145,18.76
		L50,84.992l-15.855-0.004C23.586,84.988,15,76.572,15,66.229V33.758c0-3.231,0.838-6.273,2.313-8.931
		c1.42-2.557,3.429-4.756,5.848-6.421c3.11-2.141,6.897-3.398,10.979-3.398h31.719C76.414,15.008,85,23.419,85,33.758V66.229z"/>
</g>
</g></g><g transform="translate(0,968) scale(3.08, 3.08)"><g transform="" style="fill: rgb(60, 58, 3);">
<g>
	<path style="fill:none;" d="M65.859,15.008H34.141c-4.082,0-7.869,1.258-10.979,3.398c-2.419,1.665-4.428,3.864-5.848,6.421
		C15.838,27.484,15,30.526,15,33.758v32.471c0,10.344,8.586,18.76,19.145,18.76L50,84.992l15.855-0.004
		C76.414,84.988,85,76.572,85,66.229V33.758C85,23.419,76.414,15.008,65.859,15.008z"/>
	<path d="M65.859,0.008H34.141h0C18.683,0.008,5.587,10.221,1.4,24.18c-0.433,1.444-0.771,2.928-1.006,4.445
		C0.135,30.299,0,32.013,0,33.758v32.471c0,18.619,15.32,33.76,34.141,33.76L50,99.992l15.859-0.004
		c18.82,0,34.141-15.141,34.141-33.76V33.758C100,15.148,84.68,0.008,65.859,0.008z M85,66.229c0,10.344-8.586,18.76-19.145,18.76
		L50,84.992l-15.855-0.004C23.586,84.988,15,76.572,15,66.229V33.758c0-3.231,0.838-6.273,2.313-8.931
		c1.42-2.557,3.429-4.756,5.848-6.421c3.11-2.141,6.897-3.398,10.979-3.398h31.719C76.414,15.008,85,23.419,85,33.758V66.229z"/>
</g>
</g></g><g transform="translate(88,88) scale(1.2941176470588, 1.2941176470588)"><g transform="" style="fill: rgb(60, 58, 3);">
<circle cx="50" cy="50" r="50"/>
</g></g><g transform="translate(1056,88) scale(1.2941176470588, 1.2941176470588)"><g transform="" style="fill: rgb(60, 58, 3);">
<circle cx="50" cy="50" r="50"/>
</g></g><g transform="translate(88,1056) scale(1.2941176470588, 1.2941176470588)"><g transform="" style="fill: rgb(60, 58, 3);">
<circle cx="50" cy="50" r="50"/>
</g></g></g></svg>