<svg width="32" height="30" viewBox="0 0 32 30" fill="none" xmlns="http://www.w3.org/2000/svg">
<path d="M2 0C0.895431 0 0 0.895431 0 2V10.3835C0 10.9364 0.228817 11.4645 0.632118 11.8426L18.6321 28.7176C19.4014 29.4388 20.5986 29.4388 21.3679 28.7176L30.4437 20.2091C31.2865 19.4189 31.2865 18.0811 30.4437 17.2909L12.577 0.540927C12.2063 0.193403 11.7172 0 11.2091 0H2ZM8 3.75C10.2 3.75 12 5.4375 12 7.5C12 9.5625 10.2 11.25 8 11.25C5.8 11.25 4 9.5625 4 7.5C4 5.4375 5.8 3.75 8 3.75Z" fill="#D8B71F"/>
</svg>
